<?xml version="1.0" standalone="no"?> <!DOCTYPE svg PUBLIC "-//W3C//DTD SVG 1.0//EN" "http://www.w3.org/TR/2001/REC-SVG-20010904/DTD/svg10.dtd" > <svg xmlns="http://www.w3.org/2000/svg" width="100%" height="100%">
<defs >
<font horiz-adv-x="822" ><font-face
    font-family=""
    units-per-em="1000"
    panose-1="0 0 0 0 0 0 0 0 0 0"
    ascent="812"
    descent="-188"
    alphabetic="0" />
<missing-glyph horiz-adv-x="304" />
<glyph unicode=" " glyph-name="space" horiz-adv-x="304" />
<glyph unicode="!" glyph-name="exclam" horiz-adv-x="381" d="M365 744L273 240H107L16 744H365ZM332 0H49V195H332V0Z" />
<glyph unicode="&quot;" glyph-name="quotedbl" horiz-adv-x="542" d="M510 482H293V744H510V482ZM248 482H32V744H248V482Z" />
<glyph unicode="#" glyph-name="numbersign" horiz-adv-x="835" d="M503 451H365L330 327H468L503 451ZM434 203H296L239 0H73L130 203H3L37 327H164L198 451H71L106 575H233L280 744H447L399 575H538L585 744H752L704 575H832L797 451H670L635 327H763L728 203H600L543
0H377L434 203Z" />
<glyph unicode="$" glyph-name="dollar" horiz-adv-x="1007" d="M310 537Q310 527 315 518T334 501T374 487T444 478V597Q397 595 371 590T331 577T314 559T310 539V537ZM693 229Q693 242 688 253T667 272T621 287T541 296V151Q592 153 622 160T667 178T688 201T693
225V229ZM444 -75V-13Q298 -11 212 17T82 85T26 169T13 250V261H305Q305 246 310 230T330 198T372 170T444 153V299L374 302Q270 305 203 324T95 373T39 441T23 523V532Q23 577 41 617T106 687T235 735T444 753V812H541V753Q670 751 752 731T882 679T948 606T966
522V513H677Q676 524 672 537T653 562T613 583T541 596V474L614 471Q716 468 788 454T905 414T971 348T992 253V239Q992 191 975 146T910 65T773 9T541 -13V-75H444Z" />
<glyph unicode="%" glyph-name="percent" horiz-adv-x="1451" d="M320 321Q224 321 166 343T76 397T34 465T23 531V547Q23 576 33 611T76 678T166 731T320 752H342Q438 752 496 731T585 679T627 612T638 547V531Q638 502 628 466T586 397T496 343T342 321H320ZM1240
744L424 0H209L1025 744H1240ZM330 453Q362 453 384 460T419 479T439 505T445 535V541Q445 557 440 571T421 597T385 615T330 622Q298 622 276 616T241 598T222 572T216 541V536Q216 521 222 506T241 479T276 460T330 453ZM1108 -8Q1013 -8 955 14T865 68T823 136T812
202V218Q812 247 822 283T865 350T955 403T1109 424H1131Q1227 424 1285 403T1375 351T1417 283T1428 218V202Q1428 173 1418 137T1376 68T1286 14T1132 -8H1108ZM1120 124Q1152 124 1174 131T1209 150T1229 176T1235 206V213Q1235 229 1229 243T1210 269T1174
286T1120 293Q1087 293 1065 287T1030 269T1011 244T1005 213V208Q1005 192 1011 177T1030 150T1066 131T1120 124Z" />
<glyph unicode="&amp;" glyph-name="ampersand" horiz-adv-x="1144" d="M412 577Q412 551 436 529T514 469Q568 486 602 508T637 563Q637 578 632 590T613 610T576 624T517 629Q485 629 465 625T433 614T417 598T412 577ZM500 139Q577 139 633 151L352 336Q330
325 313 306T296 255V252Q296 231 306 211T341 175T404 149T500 139ZM1081 -11Q1034 -11 996 -8T924 3T862 20T806 44Q752 20 673 3T480 -14Q342 -14 252 4T109 53T34 123T12 205V215Q12 290 73 336T255 401Q202 441 179 483T155 570V578Q155 611 168 644T219 702T322
744T493 760H549Q652 760 715 744T812 702T858 646T870 589V584Q870 554 858 527T816 476T737 434T615 402L810 271Q839 319 847 368T856 451H1101Q1100 381 1072 313T989 184Q1023 176 1061 173T1151 170L1081 -11Z" />
<glyph unicode="&apos;" glyph-name="quotesingle" horiz-adv-x="281" d="M249 482H32V744H249V482Z" />
<glyph unicode="(" glyph-name="parenleft" horiz-adv-x="361" d="M27 341Q27 419 44 487T89 613T155 720T232 808H368Q311 717 274 599T237 341Q237 201 274 81T368 -131H232Q191 -91 154 -42T89 65T44 193T27 341Z" />
<glyph unicode=")" glyph-name="parenright" horiz-adv-x="361" d="M-6 -131Q49 -38 86 81T124 341Q124 481 87 599T-6 808H129Q169 769 206 721T271 614T317 487T334 341Q334 262 318 193T273 66T208 -42T129 -131H-6V-131Z" />
<glyph unicode="*" glyph-name="asterisk" horiz-adv-x="470" d="M386 713L454 586L319 552L454 516L386 389L287 470L318 354H152L185 470L85 389L16 516L150 552L16 586L85 713L183 629L152 744H318L288 629L386 713Z" />
<glyph unicode="+" glyph-name="plus" horiz-adv-x="626" d="M404 233V57H221V233H30V384H221V559H404V384H596V233H404Z" />
<glyph unicode="," glyph-name="comma" horiz-adv-x="344" d="M108 -111Q122 -85 134 -55T150 0H31V195H313V36Q313 18 308 -2T294 -43T275 -80T255 -111H108Z" />
<glyph unicode="-" glyph-name="hyphen" horiz-adv-x="396" d="M363 390V204H33V390H363Z" />
<glyph unicode="." glyph-name="period" horiz-adv-x="344" d="M313 0H31V195H313V0Z" />
<glyph unicode="/" glyph-name="slash" horiz-adv-x="491" d="M163 -131H-38L301 808H503L163 -131Z" />
<glyph unicode="0" glyph-name="zero" horiz-adv-x="1136" d="M1113 358Q1113 324 1106 284T1080 202T1024 122T930 53T789 4T591 -14H546Q431 -14 348 4T207 52T112 121T57 201T30 283T23 358V388Q23 422 30 463T56 545T112 624T206 692T348 740T546 758H591Q705
758 788 740T930 693T1024 625T1079 545T1106 463T1113 388V358ZM818 382Q818 411 807 442T768 499T692 541T568 558Q491 558 442 542T366 499T328 442T317 382V370Q317 341 328 309T367 250T444 206T568 188Q643 188 691 205T768 249T807 308T818 369V382Z" />
<glyph unicode="1" glyph-name="one" horiz-adv-x="531" d="M18 440V595Q68 598 106 609T172 640T221 685T254 744H480V0H198V440H18Z" />
<glyph unicode="2" glyph-name="two" horiz-adv-x="1011" d="M25 0V87Q25 112 27 142T42 205T79 271T148 336T260 395T424 443Q459 451 499 459T568 472Q603 479 624 485T655 498T669 512T672 528Q672 538 667 546T644 562T594 573T509 577Q445 577 409 566T355
540T333 508T327 480H37V487Q37 510 41 539T61 599T106 657T184 708T306 744T479 758H522Q663 758 750 739T886 688T952 615T970 527V523Q970 477 955 442T901 380T797 334T631 298L471 271Q407 260 368 249T308 226T279 205T272 187H718V275H981V0H25Z" />
<glyph unicode="3" glyph-name="three" horiz-adv-x="1028" d="M483 -14Q377 -14 301 1T172 40T88 94T40 156T18 216T12 266V275H305Q306 269 311 252T335 218T394 187T504 173Q574 173 614 180T675 198T701 221T707 245Q707 255 703 264T689 281T661 293T615
297H366V475H608Q634 475 650 478T676 488T688 501T692 518V519Q692 529 687 539T663 557T604 570T495 576Q426 576 389 566T333 543T312 517T307 498H16V508Q16 527 20 552T41 606T86 661T167 709T292 744T472 758H515Q622 758 698 750T827 727T911 693T959 653T981
609T986 566V560Q986 532 974 511T943 473T901 447T855 433Q882 427 910 415T961 380T998 326T1013 251V244Q1013 198 995 152T924 69T777 9T531 -14H483Z" />
<glyph unicode="4" glyph-name="four" horiz-adv-x="1014" d="M533 748H845V334H1000V142H845V0H562V142H13V303L533 748ZM562 556L302 334H562V556Z" />
<glyph unicode="5" glyph-name="five" horiz-adv-x="982" d="M478 -14Q374 -14 301 -1T178 33T99 80T54 134T35 186T30 230V237H325Q326 233 331 222T354 200T406 179T501 170Q555 170 588 177T639 197T663 224T669 255V259Q669 274 663 289T639 316T588 335T501
343Q442 343 407 335T354 317T330 297T323 285H44V744H912V563H325V442Q331 447 348 458T396 480T475 499T588 508H597Q709 508 780 488T893 435T949 356T964 261V255Q964 224 957 192T932 131T883 75T803 29T686 -2T526 -14H478Z" />
<glyph unicode="6" glyph-name="six" horiz-adv-x="1042" d="M507 -15Q403 -15 327 2T197 47T110 113T57 192T31 277T24 359V383Q24 422 31 464T58 549T112 628T199 695T327 741T504 758H546Q683 758 770 735T906 676T973 599T991 521V517H703Q701 520 694 530T669
550T618 568T530 576Q459 576 416 559T350 516T320 463T312 415V410Q320 416 338 427T392 450T483 471T621 480H633Q750 480 825 462T945 413T1007 342T1024 255V246Q1024 203 1008 157T943 73T800 10T552 -15H507ZM338 242Q338 229 345 216T374 191T434 172T535
165Q598 165 636 172T695 190T722 214T729 240V243Q729 256 723 269T695 294T636 311T535 318Q473 318 435 312T375 295T346 272T338 245V242Z" />
<glyph unicode="7" glyph-name="seven" horiz-adv-x="981" d="M961 744V577Q949 563 930 542T888 494T837 434T783 364Q743 310 719 264T682 176T665 93T661 6V0H343V89Q343 129 351 164T380 235T436 311T527 401Q605 470 649 507T695 558H306V414H31V744H961Z" />
<glyph unicode="8" glyph-name="eight" horiz-adv-x="1019" d="M985 549Q985 515 971 488T932 441T879 409T819 393Q854 387 887 374T946 339T987 289T1003 224V213Q1003 191 998 165T975 114T927 66T843 24T714 -4T531 -15H488Q380 -15 303 -5T174 24T90 65T43
114T21 164T16 213V224Q16 260 32 288T73 338T132 373T200 393Q169 398 139 410T86 441T48 488T33 549V558Q33 577 37 599T57 643T103 686T183 723T308 748T488 758H532Q637 758 711 749T835 723T915 687T960 644T980 599T985 558V549ZM690 534Q690 544 685 554T662
574T607 588T509 594Q446 594 410 589T356 574T333 555T328 534V531Q328 520 333 509T357 489T411 475T509 469Q570 469 606 474T661 489T685 509T690 531V534ZM710 234Q710 246 704 258T676 279T616 294T509 300Q442 300 403 295T342 280T315 258T309 234V231Q309
220 315 208T343 185T403 169T509 162Q576 162 615 168T676 185T703 207T710 231V234Z" />
<glyph unicode="9" glyph-name="nine" horiz-adv-x="1042" d="M704 502Q704 515 697 528T668 552T608 570T507 577Q444 577 406 571T348 553T320 529T313 502V500Q313 487 320 474T347 450T406 432T507 425Q570 425 608 432T668 449T696 473T704 500V502ZM500
-15Q364 -15 277 8T140 67T70 144T51 221V226H338Q340 221 347 212T372 192T424 174T513 166Q583 166 626 184T692 227T722 280T730 328V332Q722 326 704 315T652 291T564 270T434 261H421Q305 261 228 280T104 331T38 405T18 495V504Q18 533 24 563T48 621T98
674T181 717T306 747T481 758H526Q630 758 706 743T838 700T928 637T983 559T1010 474T1018 387V363Q1018 324 1011 281T986 195T934 115T848 48T720 2T543 -15H500Z" />
<glyph unicode=":" glyph-name="colon" horiz-adv-x="346" d="M314 300H32V495H314V300ZM314 0H32V195H314V0Z" />
<glyph unicode=";" glyph-name="semicolon" horiz-adv-x="346" d="M314 300H32V495H314V300ZM109 -111Q123 -85 135 -55T151 0H32V195H314V36Q314 18 309 -2T295 -43T276 -80T256 -111H109Z" />
<glyph unicode="&lt;" glyph-name="less" horiz-adv-x="548" d="M30 218V388L516 544V382L197 302L516 224V63L30 218Z" />
<glyph unicode="=" glyph-name="equal" horiz-adv-x="593" d="M559 478V338H34V478H559ZM559 280V141H34V280H559Z" />
<glyph unicode="&gt;" glyph-name="greater" horiz-adv-x="541" d="M32 224L347 302L32 382V544L511 388V218L32 63V224Z" />
<glyph unicode="?" glyph-name="question" horiz-adv-x="907" d="M270 249V316Q270 343 275 364T296 404T343 436T426 463L525 486Q553 492 570 498T596 511T609 525T613 540Q613 549 610 557T591 571T546 581T463 585Q400 585 366 576T315 554T295 526T290 499H15V511Q15
534 17 561T32 615T71 667T143 711T260 742T433 754H486Q573 754 637 746T747 722T820 686T864 642T886 593T892 542V535Q892 502 883 472T851 416T793 371T703 338L602 314Q582 309 570 304T552 291T544 275T542 254V249H270ZM549 0H268V195H549V0Z" />
<glyph unicode="@" glyph-name="at" horiz-adv-x="1333" d="M674 -157Q536 -157 434 -139T260 -89T142 -14T69 79T33 183T23 291V303Q23 359 33 413T71 515T144 605T261 677T431 724T663 741H677Q830 741 936 723T1113 674T1223 603T1282 521T1305 435T1310 355V344Q1310
292 1295 238T1243 139T1140 67T975 38H958Q907 38 873 46T818 65T785 90T768 115Q760 107 743 95T699 69T633 47T543 38H529Q449 38 399 61T320 122T284 204T282 294L289 348Q293 380 307 414T349 477T421 524T530 542H545Q600 542 641 533T710 512T757 486T787
462L796 533H1061L1015 175Q1010 138 1047 138Q1073 138 1096 152T1136 193T1163 259T1173 350V353Q1173 386 1171 420T1154 486T1109 545T1023 594T884 627T677 639H663Q505 639 408 612T257 539T186 431T168 301V290Q168 249 175 207T203 127T258 56T350 -1T486
-40T674 -54Q798 -54 885 -45T1030 -22T1123 7T1178 32L1219 -71Q1201 -80 1165 -95T1066 -123T906 -147T674 -157ZM767 296Q774 349 745 375T657 402Q628 402 609 394T578 374T560 345T552 311L549 288Q546 268 549 249T564 214T594 190T643 180Q675 180 697 188T733
209T755 241T765 280L767 296Z" />
<glyph unicode="A" glyph-name="A" horiz-adv-x="1107" d="M538 562L416 306H663L538 562ZM754 120H329L272 0H-16L352 744H734L1123 0H812L754 120Z" />
<glyph unicode="B" glyph-name="B" horiz-adv-x="1078" d="M48 744H748Q829 744 882 730T967 692T1010 638T1023 575V564Q1023 529 1010 504T978 461T936 433T895 418Q920 412 949 400T1005 366T1048 310T1066 227V215Q1066 171 1051 132T1000 64T904 17T752 0H48V744ZM332
575V470H662Q706 470 722 485T738 522V524Q738 546 722 560T662 575H332ZM332 303V175H680Q708 175 725 181T751 196T764 216T768 239V242Q768 254 765 265T752 284T725 298T680 303H332Z" />
<glyph unicode="C" glyph-name="C" horiz-adv-x="1126" d="M549 -14Q435 -14 352 4T210 51T115 120T58 200T30 283T23 360V389Q23 424 29 465T56 548T112 627T206 694T349 740T549 758H588Q701 758 783 743T923 702T1016 644T1072 578T1099 513T1106 457V444H811Q809
451 801 470T768 508T695 543T566 558Q489 558 441 543T365 502T327 446T317 384V372Q317 342 328 310T367 250T443 205T567 187Q622 187 661 195T727 215T770 241T795 269T807 294T812 309H1106V293Q1106 269 1099 237T1072 170T1015 103T922 44T782 2T588 -14H549Z"
/>
<glyph unicode="D" glyph-name="D" horiz-adv-x="1133" d="M48 744H576Q737 744 841 714T1005 634T1089 521T1113 392V362Q1113 320 1104 277T1073 193T1011 118T913 56T771 15T577 0H48V744ZM332 197H543Q636 197 690 215T773 259T810 316T818 371V377Q818 401
810 431T774 487T691 531T543 549H332V197Z" />
<glyph unicode="E" glyph-name="E" horiz-adv-x="913" d="M871 744V562H328V469H860V288H328V186H879V0H48V744H871Z" />
<glyph unicode="F" glyph-name="F" horiz-adv-x="890" d="M855 744V562H329V469H844V286H329V0H48V744H855Z" />
<glyph unicode="G" glyph-name="G" horiz-adv-x="1159" d="M525 -14Q423 -14 347 3T214 48T122 114T63 194T32 279T23 361V389Q23 429 31 472T62 556T122 633T218 698T358 742T550 758H589Q703 758 785 744T926 707T1019 654T1075 592T1103 529T1111 471V470H815Q813
477 805 492T771 524T700 552T574 564Q499 564 450 549T371 509T329 450T317 380V369Q317 333 331 300T375 240T454 197T572 181Q644 181 692 192T771 218T813 249T826 274H565V419H1116V0H937Q935 9 932 22T923 50T913 79T902 103Q891 91 867 71T801 33T697 0T548
-14H525Z" />
<glyph unicode="H" glyph-name="H" horiz-adv-x="1128" d="M48 744H332V481H797V744H1080V0H797V283H332V0H48V744Z" />
<glyph unicode="I" glyph-name="I" horiz-adv-x="379" d="M331 0H48V744H331V0Z" />
<glyph unicode="J" glyph-name="J" horiz-adv-x="948" d="M421 -11Q333 -11 268 5T157 47T82 108T36 180T13 254T7 324V330H286Q287 319 292 298T313 255T362 218T450 202H458Q503 202 534 214T585 249T614 302T623 369V744H907V363Q907 324 901 282T879 198T833
118T756 52T641 6T482 -11H421V-11Z" />
<glyph unicode="K" glyph-name="K" horiz-adv-x="1046" d="M48 0V744H332V450L698 744H1051L618 406L1065 0H695L332 333V0H48Z" />
<glyph unicode="L" glyph-name="L" horiz-adv-x="875" d="M332 744V213H848V0H48V744H332Z" />
<glyph unicode="M" glyph-name="M" horiz-adv-x="1320" d="M48 744H438L666 326L898 744H1272V0H991V464L730 0H585L325 464V0H48V744Z" />
<glyph unicode="N" glyph-name="N" horiz-adv-x="1128" d="M366 744L798 321V744H1080V0H796L330 451V0H48V744H366Z" />
<glyph unicode="O" glyph-name="O" horiz-adv-x="1176" d="M611 758Q731 758 818 741T965 694T1062 626T1119 547T1146 465T1153 389V359Q1153 324 1147 283T1120 201T1063 121T966 52T818 4T611 -14H566Q446 -14 359 4T211 52T114 120T57 200T30 283T23 359V389Q23
424 29 465T56 547T114 626T211 693T358 740T566 758H611ZM859 382Q859 412 848 443T806 499T724 541T588 558Q504 558 451 542T369 500T328 443T317 382V370Q317 341 328 309T370 249T452 205T588 187Q670 187 723 204T806 247T847 306T859 368V382Z" />
<glyph unicode="P" glyph-name="P" horiz-adv-x="1037" d="M332 233V0H48V744H668Q771 744 839 725T947 673T1004 594T1021 498V482Q1021 431 1004 386T947 307T838 253T668 233H332ZM332 419H634Q683 419 705 437T728 487V490Q728 522 706 540T634 558H332V419Z" />
<glyph unicode="Q" glyph-name="Q" horiz-adv-x="1176" d="M481 -11Q381 -4 308 16T184 67T102 135T53 211T29 288T23 359V389Q23 424 30 465T57 548T114 627T211 694T359 740T566 758H611Q730 758 817 741T964 694T1061 627T1118 548T1146 466T1153 389V359Q1153
328 1148 291T1126 217T1082 143T1007 77T895 25T739 -7L867 -155H481V-11ZM859 382Q859 412 848 443T806 500T724 542T588 558Q504 558 451 542T369 501T328 444T317 382V370Q317 340 328 308T370 249T452 205T588 187Q670 187 723 204T806 247T847 306T859 368V382Z"
/>
<glyph unicode="R" glyph-name="R" horiz-adv-x="1070" d="M332 435H658Q705 435 724 453T744 499V500Q744 526 725 544T658 563H332V435ZM332 0H48V744H724Q887 744 962 694T1037 553V542Q1037 501 1022 472T983 424T934 393T887 376Q956 360 998 316T1040 199V89Q1040
50 1044 33T1054 5V0H764Q759 6 757 14T755 39V126Q755 190 722 222T604 255H332V0Z" />
<glyph unicode="S" glyph-name="S" horiz-adv-x="1036" d="M468 -14Q365 -14 292 -1T168 33T87 81T41 138T19 197T14 250V260H326Q327 245 333 227T359 193T415 166T512 155H521Q581 155 616 161T671 176T697 198T703 225V226Q703 240 698 251T674 272T622 286T528
293L390 297Q282 300 212 319T100 369T42 438T25 521V530Q25 575 43 616T109 689T240 738T453 757H542Q680 757 768 737T906 684T975 609T994 522V514H685Q684 524 679 537T655 563T601 584T505 593H495Q439 593 407 589T357 577T336 559T331 538V537Q331 526 336
516T359 498T408 486T493 480L627 477Q733 474 807 460T929 419T998 350T1020 253V239Q1020 192 1003 147T936 66T796 8T559 -14H468V-14Z" />
<glyph unicode="T" glyph-name="T" horiz-adv-x="977" d="M346 541H25V744H951V541H630V0H346V541Z" />
<glyph unicode="U" glyph-name="U" horiz-adv-x="1104" d="M40 744H325V411Q325 377 334 342T368 277T438 230T553 211Q622 211 666 229T736 277T770 341T780 411V744H1064V389Q1064 353 1057 310T1031 221T977 135T889 60T757 8T574 -12H534Q426 -12 347 7T214
60T125 134T72 221T47 309T40 389V744Z" />
<glyph unicode="V" glyph-name="V" horiz-adv-x="1076" d="M363 0L-13 744H309L559 225L794 744H1089L740 0H363Z" />
<glyph unicode="W" glyph-name="W" horiz-adv-x="1535" d="M278 0L-12 744H304L473 253L622 744H942L1093 261L1257 744H1548L1258 0H929L774 470L624 0H278Z" />
<glyph unicode="X" glyph-name="X" horiz-adv-x="1083" d="M-11 0L330 382L0 744H363L552 525L742 744H1079L757 385L1094 0H745L537 233L331 0H-11Z" />
<glyph unicode="Y" glyph-name="Y" horiz-adv-x="1049" d="M387 280L-20 744H320L537 487L758 744H1069L671 278V0H387V280Z" />
<glyph unicode="Z" glyph-name="Z" horiz-adv-x="954" d="M920 744V593L432 203H925V0H29V152L503 548H35V744H920Z" />
<glyph unicode="[" glyph-name="bracketleft" horiz-adv-x="374" d="M48 808H360V690H249V-12H360V-131H48V808Z" />
<glyph unicode="\" glyph-name="backslash" horiz-adv-x="491" d="M-11 808H192L529 -131H329L-11 808Z" />
<glyph unicode="]" glyph-name="bracketright" horiz-adv-x="374" d="M14 -12H125V690H14V808H326V-131H14V-12Z" />
<glyph unicode="^" glyph-name="asciicircum" horiz-adv-x="737" d="M367 600L237 424H2L240 744H498L735 424H495L367 600Z" />
<glyph unicode="_" glyph-name="underscore" horiz-adv-x="847" d="M1 -20H846V-162H1V-20Z" />
<glyph unicode="`" glyph-name="grave" horiz-adv-x="706" d="M285 583L174 744H444L532 583H285Z" />
<glyph unicode="a" glyph-name="a" horiz-adv-x="846" d="M521 254L341 222Q306 216 291 206T275 176V175Q275 166 279 156T292 138T318 125T360 120Q397 120 427 129T478 154T510 190T521 231V254ZM526 72Q516 62 498 48T449 21T376 -1T274 -10H263Q195 -10 148
4T71 43T28 99T14 163V175Q14 209 25 235T63 281T130 313T232 331L491 354Q508 356 514 362T521 380Q521 387 518 394T502 408T467 417T404 421H400Q357 421 333 415T298 400T283 382T279 366H27V372Q27 399 35 430T78 489T182 534T372 552H428Q512 552 571 545T670
524T733 493T768 457T783 417T787 379V180Q787 169 791 163T810 157H839V0H613Q578 0 555 18T526 72Z" />
<glyph unicode="b" glyph-name="b" horiz-adv-x="935" d="M312 744V465Q320 471 339 485T391 513T469 537T573 548H594Q685 548 746 526T845 467T898 382T914 282V261Q914 209 897 161T841 74T739 13T584 -10H564Q508 -10 464 0T388 23T336 50T307 71Q302 57 299
37T293 0H40V744H312ZM312 268Q312 245 322 222T352 181T403 152T475 140H481Q526 140 556 151T605 181T630 222T638 268V272Q638 296 631 319T605 360T557 389T481 400H475Q433 400 403 389T352 360T322 319T312 272V268Z" />
<glyph unicode="c" glyph-name="c" horiz-adv-x="887" d="M415 -15Q329 -15 266 -2T159 32T88 82T45 141T25 203T19 263V281Q19 309 24 340T45 401T87 458T158 507T265 540T414 553H476Q566 553 630 541T738 508T808 461T849 408T867 356T872 313V310H594Q593
317 588 332T567 364T522 391T445 403H441Q398 403 370 392T325 364T302 324T295 278V273Q295 249 302 225T325 181T370 149T441 137H445Q493 137 521 149T566 177T587 210T594 234H872V232Q872 214 868 189T851 136T812 81T742 33T632 -2T475 -15H415Z" />
<glyph unicode="d" glyph-name="d" horiz-adv-x="932" d="M620 274Q620 296 610 318T578 358T526 387T451 398H446Q402 398 373 387T326 359T302 319T295 274V269Q295 247 303 225T329 184T376 154T447 142H451Q494 142 526 153T579 183T610 223T620 269V274ZM892
744V0H621V78Q614 70 597 56T548 27T471 1T362 -10H345Q257 -10 195 12T94 72T37 159T19 262V283Q19 334 36 382T90 467T188 526T337 548H356Q418 548 463 539T541 517T592 491T620 470V744H892Z" />
<glyph unicode="e" glyph-name="e" horiz-adv-x="888" d="M444 421Q405 421 378 415T333 399T305 373T289 340H599Q591 378 556 399T444 421ZM869 194Q869 175 864 153T844 107T802 61T731 23T624 -4T472 -15H419Q295 -15 217 10T95 76T35 165T19 262V282Q19 329
34 377T92 464T213 528T416 553H471Q559 553 622 541T730 506T802 455T845 394T865 327T871 260V230H286Q289 209 299 191T329 160T378 139T449 131H450Q498 131 527 139T573 159T594 180T601 196H869V194Z" />
<glyph unicode="f" glyph-name="f" horiz-adv-x="530" d="M510 600H426Q403 600 396 591T389 561V538H510V373H389V0H119V373H13V538H119V591Q119 623 128 651T160 699T221 732T316 744H510V600Z" />
<glyph unicode="g" glyph-name="g" horiz-adv-x="942" d="M450 396Q405 396 375 387T327 362T302 328T294 288V283Q294 262 302 242T328 205T376 179T450 169H456Q501 169 533 179T587 205T618 241T628 283V286Q628 307 618 327T587 362T534 387T456 396H450ZM429
-195Q345 -195 285 -185T182 -158T115 -120T75 -78T57 -37T52 -3V0H325Q326 -5 330 -12T349 -27T391 -40T465 -45H468Q517 -45 549 -33T599 -2T624 41T631 92V103Q622 94 604 81T555 54T479 32T369 23H353Q260 23 197 44T94 102T37 184T19 279V297Q19 344 35 389T88
469T185 526T335 548H357Q423 548 469 539T548 518T600 492T630 469V538H902V90Q902 49 888 0T831 -93T710 -166T506 -195H429Z" />
<glyph unicode="h" glyph-name="h" horiz-adv-x="897" d="M40 744H312V444Q321 453 341 470T396 505T477 536T588 550H594Q669 550 720 530T801 480T845 414T858 346V0H585V257Q585 311 555 346T455 381Q386 381 349 344T312 250V0H40V744Z" />
<glyph unicode="i" glyph-name="i" horiz-adv-x="352" d="M312 583H40V744H312V583ZM312 0H40V538H312V0Z" />
<glyph unicode="j" glyph-name="j" horiz-adv-x="352" d="M312 583H40V744H312V583ZM8 -27Q26 -27 33 -20T40 10V538H312V-40Q312 -81 303 -109T279 -155T243 -180T200 -188H-28V-27H8Z" />
<glyph unicode="k" glyph-name="k" horiz-adv-x="807" d="M40 0V744H312V328L496 538H789L570 300L821 0H512L312 242V0H40Z" />
<glyph unicode="l" glyph-name="l" horiz-adv-x="352" d="M312 0H40V744H312V0Z" />
<glyph unicode="m" glyph-name="m" horiz-adv-x="1382" d="M40 0V538H310V442Q319 451 339 469T391 505T470 536T577 550H583Q629 550 665 541T729 517T774 481T805 439Q821 454 846 473T905 509T985 538T1087 550H1094Q1166 550 1214 530T1290 480T1331 413T1343
346V0H1071V258Q1071 284 1065 306T1046 345T1012 371T960 381Q896 381 862 344T828 251V0H555V258Q555 284 549 306T530 345T496 371T444 381Q380 381 346 344T312 251V0H40Z" />
<glyph unicode="n" glyph-name="n" horiz-adv-x="897" d="M40 538H310V443Q320 452 341 470T396 506T477 537T588 550H594Q669 550 720 530T801 480T845 414T858 346V0H585V257Q585 311 555 346T455 381Q386 381 349 344T312 250V0H40V538Z" />
<glyph unicode="o" glyph-name="o" horiz-adv-x="927" d="M427 -15Q341 -15 277 -3T168 31T94 81T49 140T26 203T19 264V280Q19 308 25 339T47 401T93 459T167 507T276 540T426 553H502Q591 553 656 541T766 507T839 459T882 402T903 340T908 281V263Q908 234
903 203T883 140T841 81T768 32T657 -2T501 -15H427ZM464 401Q414 401 381 390T329 360T303 320T295 275V271Q295 249 302 226T329 183T380 151T464 138H465Q515 138 547 151T599 183T625 226T633 271V275Q633 297 626 319T599 360T548 389T465 401H464Z" />
<glyph unicode="p" glyph-name="p" horiz-adv-x="933" d="M312 268Q312 246 321 223T351 182T403 152T479 140H484Q529 140 559 152T606 182T631 223T638 268V272Q638 295 631 318T607 359T559 388T484 399H479Q434 399 403 388T351 359T322 319T312 272V268ZM312
538V463Q320 470 340 484T392 512T469 537T574 548H595Q688 548 749 526T847 467T899 383T914 285V264Q914 214 898 165T844 77T744 14T587 -10H568Q511 -10 467 -1T390 21T339 47T312 66V-188H40V538H312Z" />
<glyph unicode="q" glyph-name="q" horiz-adv-x="931" d="M892 538V-188H620V73Q611 64 592 50T541 22T465 0T360 -10H346Q255 -10 193 13T92 74T36 162T19 263V284Q19 334 35 381T89 466T188 525T338 548H356Q418 548 464 538T542 515T594 488T624 466Q630 480
635 501T641 538H892ZM620 275Q620 297 610 319T578 359T525 387T450 398H445Q401 398 372 387T326 359T302 319T295 274V269Q295 247 302 225T327 184T374 153T446 141H451Q494 141 526 152T579 182T610 224T620 270V275Z" />
<glyph unicode="r" glyph-name="r" horiz-adv-x="790" d="M310 439Q318 451 335 469T380 506T446 537T535 550H547Q614 550 657 529T726 474T762 398T773 312V258H509V277Q509 322 487 354T412 387Q364 387 338 355T312 271V0H40V538H310V439Z" />
<glyph unicode="s" glyph-name="s" horiz-adv-x="814" d="M372 -15Q291 -15 233 -6T135 19T71 54T34 95T17 137T13 176V183H290Q290 175 293 164T307 143T341 125T401 117H403Q439 117 461 121T494 131T510 145T514 162V164Q514 174 511 181T496 195T465 204T411
208L297 211Q212 214 158 229T73 268T31 321T19 380V386Q19 419 32 449T84 502T191 539T372 553H425Q533 553 602 539T710 502T763 448T778 386V379H506Q505 386 502 394T488 410T456 423T398 429H397Q364 429 344 427T312 420T296 408T292 392V391Q292 383 296
376T311 364T341 356T392 351L505 348Q596 345 653 333T742 300T786 248T798 177V170Q798 133 785 100T731 41T618 0T427 -15H372V-15Z" />
<glyph unicode="t" glyph-name="t" horiz-adv-x="514" d="M259 0Q189 0 153 38T116 153V373H13V538H116V695H386V538H489V373H386V214Q386 189 394 178T431 167H489V0H259Z" />
<glyph unicode="u" glyph-name="u" horiz-adv-x="887" d="M847 0H577V96Q567 86 547 68T493 32T413 1T304 -12H297Q222 -12 173 8T93 60T51 128T39 198V538H312V281Q312 255 318 233T340 193T378 167T436 157Q504 157 540 195T576 288V538H847V0Z" />
<glyph unicode="v" glyph-name="v" horiz-adv-x="837" d="M-11 538H280L428 188L569 538H848L603 0H244L-11 538Z" />
<glyph unicode="w" glyph-name="w" horiz-adv-x="1219" d="M202 0L-10 538H273L378 199L481 538H761L866 200L969 538H1229L1029 0H725L617 326L509 0H202Z" />
<glyph unicode="x" glyph-name="x" horiz-adv-x="848" d="M-10 0L238 277L-5 538H304L427 397L547 538H846L609 281L859 0H556L421 158L287 0H-10Z" />
<glyph unicode="y" glyph-name="y" horiz-adv-x="827" d="M119 -22H241Q256 -22 261 -17T266 -5V-4Q266 4 260 16T243 50L-11 538H279L429 192L568 538H838L579 -23Q540 -108 493 -148T372 -188H119V-22Z" />
<glyph unicode="z" glyph-name="z" horiz-adv-x="752" d="M22 0V146L380 379H22V538H729V395L360 165H730V0H22Z" />
<glyph unicode="{" glyph-name="braceleft" horiz-adv-x="393" d="M224 -131Q136 -131 91 -104T45 -17Q45 14 58 50T88 122T117 189T131 239Q131 282 87 282H19V400H87Q110 400 120 409T131 435Q131 456 118 486T88 551T59 621T45 687Q45 746 87 777T224 808H380V690H295Q250
690 250 654Q250 638 260 612T283 556T305 497T316 445Q316 403 293 379T211 342Q269 331 292 309T316 252Q316 228 306 197T283 134T261 76T250 32Q250 -12 303 -12H380V-131H224Z" />
<glyph unicode="|" glyph-name="bar" horiz-adv-x="371" d="M279 -131H92V808H279V-131Z" />
<glyph unicode="}" glyph-name="braceright" horiz-adv-x="393" d="M14 -12H90Q143 -12 143 32Q143 48 133 75T111 134T88 196T78 252Q78 287 101 309T182 342Q124 354 101 378T78 445Q78 467 88 496T110 555T133 611T143 654Q143 690 98 690H14V808H169Q263 808
305 777T348 687Q348 657 335 622T306 552T277 487T263 435Q263 419 273 410T306 400H374V282H306Q283 282 273 271T263 239Q263 220 276 189T305 123T334 51T348 -17Q348 -77 303 -104T169 -131H14V-12Z" />
<glyph unicode="~" glyph-name="asciitilde" horiz-adv-x="694" d="M516 243Q486 243 462 247T416 260T370 280T320 307Q302 317 290 324T268 335T253 341T239 343Q226 343 221 335T216 313V226H23V374Q23 402 30 432T55 486T103 526T180 542Q210 542 234 538T280
525T325 505T373 479Q405 462 424 452T456 442Q478 442 478 473V561H671V389Q671 363 663 337T637 290T590 256T516 243Z" />
<glyph unicode="&#xa1;" glyph-name="exclamdown" horiz-adv-x="360" d="M-1 -206L91 298H257L348 -206H-1ZM32 538H315V343H32V538Z" />
<glyph unicode="&#xa2;" glyph-name="cent" horiz-adv-x="901" d="M400 -77V-15Q317 -14 257 0T154 35T85 85T44 143T24 204T19 263V281Q19 322 31 368T84 455T200 523T400 553V614H502V553Q589 552 651 539T755 505T823 459T862 407T880 356T885 313V310H608Q607
317 603 329T587 356T556 382T502 400V140Q535 146 555 159T587 186T602 213T608 234H885V232Q885 214 882 189T865 137T827 84T760 36T654 0T502 -15V-77H400ZM295 273Q295 252 300 231T317 192T349 161T400 141V400Q369 395 349 383T317 354T300 318T295 278V273Z"
/>
<glyph unicode="&#xa3;" glyph-name="sterling" horiz-adv-x="960" d="M933 0H16V165H73Q121 165 147 180T174 234V236Q174 253 170 273T159 315H16V428H122Q115 451 111 474T107 520V527Q107 566 121 606T177 679T292 732T485 753H526Q617 753 681 741T789 709T858
661T897 605T913 547T917 491V482H639Q638 495 634 512T617 545T579 571T511 582Q470 582 445 574T405 551T386 517T380 478Q380 456 386 428H738V315H406Q409 295 409 278Q409 253 402 235T383 204T359 181T332 165H643V261H933V0Z" />
<glyph unicode="&#xa5;" glyph-name="yen" horiz-adv-x="1016" d="M371 158H113V246H371V294H113V382H305L-20 744H315L522 499L732 744H1037L721 382H914V294H656V246H914V158H656V0H371V158Z" />
<glyph unicode="&#xa6;" glyph-name="brokenbar" horiz-adv-x="371" d="M279 383H92V808H279V383ZM279 -131H92V328H279V-131Z" />
<glyph unicode="&#xa7;" glyph-name="section" horiz-adv-x="956" d="M644 198Q657 206 666 219T676 251Q676 263 672 273T658 293T628 309T577 322Q511 332 466 340T389 353T338 363T304 370Q292 364 282 351T271 317Q271 305 275 295T290 275T321 258T373 245Q438
234 483 227T559 214T610 205T644 198ZM444 -209Q352 -209 287 -198T178 -169T109 -127T70 -78T53 -28T49 18V22H318Q319 11 323 -4T342 -33T388 -56T473 -66H478Q515 -66 539 -62T576 -52T594 -36T599 -17V-15Q599 -5 596 4T580 21T545 36T482 49L278 79Q201 90
150 109T69 154T26 209T13 273V283Q13 314 24 338T56 379T104 409T162 427Q115 452 96 488T76 568V578Q76 618 93 651T154 708T271 745T457 758H513Q599 758 660 749T762 725T829 690T867 646T884 597T888 548V545H621Q620 554 617 566T599 591T558 611T482 619H475Q433
619 408 616T369 608T351 594T346 576V574Q346 565 349 557T364 543T397 530T455 518L690 484Q765 473 813 456T890 416T930 363T941 299V289Q941 255 927 231T891 189T843 161T792 144Q832 123 853 88T875 2V-7Q875 -45 860 -81T803 -145T688 -191T499 -209H444Z"
/>
<glyph unicode="&#xa8;" glyph-name="dieresis" horiz-adv-x="706" d="M613 583H375V744H613V583ZM329 583H92V744H329V583Z" />
<glyph unicode="&#xa9;" glyph-name="copyright" horiz-adv-x="1185" d="M581 -12Q470 -12 386 2T239 41T136 101T69 177T34 265T23 359V387Q23 434 33 479T68 566T134 642T238 702T384 741T580 756H604Q715 756 800 742T947 702T1050 642T1116 566T1151 480T1162
387V359Q1162 311 1152 265T1116 177T1050 101T946 41T800 2T604 -12H581ZM157 364Q157 307 177 256T245 166T376 105T582 82H603Q727 82 809 104T939 165T1008 255T1028 364V381Q1028 442 1008 494T940 583T809 642T603 663H582Q458 663 376 642T246 584T177 494T157
381V364ZM590 147Q479 147 412 169T308 223T260 294T248 364V387Q248 420 259 457T307 526T410 579T589 600H609Q684 600 738 591T829 566T888 531T923 491T940 451T944 416V409H721Q720 413 716 423T698 443T661 462T596 470Q557 470 533 463T494 443T475 415T469
381V374Q469 357 474 340T494 309T533 287T597 278Q638 278 662 287T698 307T715 330T721 346H944V336Q944 320 940 300T924 259T889 218T829 182T739 157T611 147H590Z" />
<glyph unicode="&#xaa;" glyph-name="ordfeminine" horiz-adv-x="609" d="M261 471Q309 471 335 493T362 543V554L251 534Q208 525 208 502Q208 489 220 480T261 471ZM372 436Q364 428 351 419T317 400T266 385T196 379H188Q138 379 105 389T51 415T23 451T14
494V501Q14 547 53 572T180 606L341 620Q353 622 357 625T362 637Q362 642 360 646T350 654T328 660T290 662H284Q258 662 244 659T222 650T213 639T211 629H23V633Q23 650 28 670T57 709T130 739T267 751H306Q393 751 443 740T518 713T550 676T557 638V512Q557
505 559 501T572 496H594V386H430Q407 386 392 398T372 436Z" />
<glyph unicode="&#xab;" glyph-name="guillemotleft" horiz-adv-x="570" d="M317 114H132L11 287L132 457H319L201 287L317 114ZM552 114H367L251 287L370 457H556L442 287L552 114Z" />
<glyph unicode="&#xae;" glyph-name="registered" horiz-adv-x="672" d="M355 756Q449 756 507 737T599 688T643 622T655 553V539Q655 504 641 468T593 402T500 355T354 336H320Q228 336 169 354T76 402T30 467T17 539V553Q17 586 29 622T74 688T167 737T320 756H355ZM339
395Q420 395 467 409T539 446T569 496T576 549Q576 574 570 600T539 647T468 682T339 696H336Q253 696 206 683T134 649T103 600T96 546Q96 520 102 494T133 445T205 409T336 395H339ZM365 565Q379 565 384 570T390 584Q390 592 385 596T365 601H294V565H365ZM294
440H181V654H403Q433 654 452 650T482 638T498 620T502 599V598Q502 575 486 564T451 550Q477 545 490 532T504 499V464Q504 455 505 451T510 443V440H395Q393 442 392 444T390 454V477Q390 494 384 501T358 509H294V440Z" />
<glyph unicode="&#xaf;" glyph-name="macron" horiz-adv-x="706" d="M127 722H579V593H127V722Z" />
<glyph unicode="&#xb0;" glyph-name="degree" horiz-adv-x="430" d="M215 367Q171 367 134 381T69 420T26 481T10 561Q10 604 25 640T69 701T134 741T215 755Q258 755 295 741T360 702T404 640T420 561Q420 517 404 482T361 421T296 381T215 367ZM215 483Q251
483 273 504T295 561Q295 596 273 618T215 640Q180 640 158 618T135 561Q135 526 157 505T215 483Z" />
<glyph unicode="&#xb4;" glyph-name="acute" horiz-adv-x="706" d="M263 744H531L420 583H174L263 744Z" />
<glyph unicode="&#xb6;" glyph-name="paragraph" horiz-adv-x="811" d="M323 316H265Q196 316 148 332T69 375T25 440T11 522V541Q11 584 22 621T61 685T139 728T266 744H800V620H724V0H572V620H474V0H323V316Z" />
<glyph unicode="&#xb7;" glyph-name="periodcentered" horiz-adv-x="344" d="M313 220H31V415H313V220Z" />
<glyph unicode="&#xb8;" glyph-name="cedilla" horiz-adv-x="706" d="M169 -167H278Q299 -167 306 -161T314 -145Q314 -136 307 -130T278 -123H207V0H345V-49Q405 -49 442 -56T501 -76T529 -109T537 -151V-154Q537 -175 529 -194T500 -228T442 -250T344 -259H169V-167Z" />
<glyph unicode="&#xba;" glyph-name="ordmasculine" horiz-adv-x="635" d="M293 376Q204 376 149 394T64 439T24 499T14 560V571Q14 600 24 631T64 689T149 733T293 751H343Q435 751 490 734T574 690T612 631T621 571V560Q621 531 613 499T575 440T490 394T342
376H293ZM216 565Q216 551 220 537T236 511T267 492T317 484H318Q348 484 367 491T398 510T414 536T419 565V567Q419 582 414 596T398 621T367 638T318 645H317Q288 645 269 639T238 621T221 596T216 567V565Z" />
<glyph unicode="&#xbb;" glyph-name="guillemotright" horiz-adv-x="570" d="M14 457H200L319 287L203 114H18L128 287L14 457ZM253 114L369 287L251 457H438L559 287L438 114H253Z" />
<glyph unicode="&#xbc;" glyph-name="onequarter" horiz-adv-x="1006" d="M15 580V673Q46 674 68 680T105 695T131 716T147 744H301V376H115V580H15ZM1223 744L403 0H214L1028 744H1223ZM717 369H918V179H993V72H918V0H733V72H461V167L717 369ZM733 179V279L606 179H733Z" />
<glyph unicode="&#xbd;" glyph-name="onehalf" horiz-adv-x="1080" d="M1223 744L403 0H214L1028 744H1223ZM15 580V673Q46 674 68 680T105 695T131 716T147 744H301V376H115V580H15ZM538 0V47Q538 74 545 99T577 148T654 190T792 225Q819 229 835 233T860 241T872
249T875 258V259Q875 263 873 267T863 274T842 279T805 281Q778 281 763 277T739 265T729 251T726 238H544V242Q544 259 550 282T582 326T656 361T793 376H812Q891 376 940 367T1017 341T1053 304T1063 258V253Q1063 226 1050 208T1009 176T936 155T827 139Q767
131 734 126T693 110H1062V0H538Z" />
<glyph unicode="&#xbe;" glyph-name="threequarters" horiz-adv-x="1197" d="M1157 744L337 0H148L962 744H1157ZM261 370Q174 370 124 386T48 424T15 470T8 509V514H192Q192 511 194 504T205 491T231 479T278 474Q307 474 324 476T351 483T362 492T365 502V504Q365
514 357 519T322 525H210V615H317Q342 615 350 620T358 632V634Q358 638 356 642T344 649T319 654T274 656Q244 656 228 652T204 643T194 633T192 625H14V630Q14 641 19 661T48 702T120 738T255 753H289Q375 753 426 745T503 723T537 692T545 659V655Q545 628 523
612T468 591Q507 585 534 563T561 501V497Q561 474 552 452T514 411T433 382T294 370H261ZM909 369H1110V179H1185V72H1110V0H925V72H653V167L909 369ZM925 179V279L798 179H925Z" />
<glyph unicode="&#xbf;" glyph-name="questiondown" horiz-adv-x="899" d="M627 289V222Q627 195 622 174T601 134T554 102T471 75L372 52Q344 46 327 40T301 27T288 13T284 -2Q284 -11 287 -19T306 -33T351 -43T434 -47Q497 -47 531 -38T582 -16T602 12T607 39H882V27Q882
4 880 -23T865 -77T826 -129T754 -173T637 -204T464 -216H411Q324 -216 260 -208T150 -184T77 -148T33 -104T11 -55T5 -4V3Q5 36 14 66T46 122T104 167T194 200L295 224Q315 229 327 234T345 247T353 263T355 284V289H627ZM348 538H629V343H348V538Z" />
<glyph unicode="&#xc0;" glyph-name="Agrave" horiz-adv-x="1107" d="M538 562L416 306H663L538 562ZM754 120H329L272 0H-16L352 744H734L1123 0H812L754 120ZM671 789H414L313 944H592L671 789Z" />
<glyph unicode="&#xc1;" glyph-name="Aacute" horiz-adv-x="1107" d="M538 562L416 306H663L538 562ZM754 120H329L272 0H-16L352 744H734L1123 0H812L754 120ZM496 944H775L674 789H417L496 944Z" />
<glyph unicode="&#xc2;" glyph-name="Acircumflex" horiz-adv-x="1107" d="M538 562L416 306H663L538 562ZM754 120H329L272 0H-16L352 744H734L1123 0H812L754 120ZM847 789H603L541 847L480 789H239L401 944H683L847 789Z" />
<glyph unicode="&#xc3;" glyph-name="Atilde" horiz-adv-x="1107" d="M538 562L416 306H663L538 562ZM754 120H329L272 0H-16L352 744H734L1123 0H812L754 120ZM671 793Q654 793 640 794T611 799T578 808T536 822Q513 830 500 833T476 837Q465 837 462 831T458
816V787H297V872Q297 887 301 904T318 936T352 960T410 970H414Q431 970 445 969T475 963T509 954T551 941Q571 934 585 930T610 926Q618 926 622 932T627 946V975H788V896Q788 880 785 862T769 829T735 803T676 793H671V793Z" />
<glyph unicode="&#xc4;" glyph-name="Adieresis" horiz-adv-x="1107" d="M538 562L416 306H663L538 562ZM754 120H329L272 0H-16L352 744H734L1123 0H812L754 120ZM812 789H567V944H812V789ZM519 789H273V944H519V789Z" />
<glyph unicode="&#xc5;" glyph-name="Aring" horiz-adv-x="1107" d="M538 562L416 306H663L538 562ZM754 120H329L272 0H-16L352 744H734L1123 0H812L754 120ZM344 899Q344 923 353 945T386 983T447 1008T544 1018Q602 1018 640 1009T700 983T732 945T741 899Q741
874 732 853T701 815T640 790T544 780Q485 780 447 789T385 815T353 853T344 899ZM467 900Q467 879 485 867T544 854Q584 854 601 866T619 900Q619 920 602 932T544 944Q503 944 485 932T467 900Z" />
<glyph unicode="&#xc6;" glyph-name="AE" horiz-adv-x="1516" d="M668 568L477 302H668V568ZM668 116H343L260 0H-26L514 744H1474V562H948V469H1464V288H948V186H1482V0H668V116Z" />
<glyph unicode="&#xc7;" glyph-name="Ccedilla" horiz-adv-x="1126" d="M549 -14Q435 -14 352 4T210 51T115 120T58 200T30 283T23 360V389Q23 424 29 465T56 548T112 627T206 694T349 740T549 758H588Q701 758 783 743T923 702T1016 644T1072 578T1099 513T1106
457V444H811Q809 451 801 470T768 508T695 543T566 558Q489 558 441 543T365 502T327 446T317 384V372Q317 342 328 310T367 250T443 205T567 187Q622 187 661 195T727 215T770 241T795 269T807 294T812 309H1106V293Q1106 269 1099 237T1072 170T1015 103T922
44T782 2T588 -14H549ZM390 -167H499Q520 -167 527 -161T535 -145Q535 -136 528 -130T499 -123H428V0H566V-49Q626 -49 663 -56T722 -76T750 -109T758 -151V-154Q758 -175 750 -194T721 -228T663 -250T565 -259H390V-167Z" />
<glyph unicode="&#xc8;" glyph-name="Egrave" horiz-adv-x="913" d="M871 744V562H328V469H860V288H328V186H879V0H48V744H871ZM618 789H361L260 944H539L618 789Z" />
<glyph unicode="&#xc9;" glyph-name="Eacute" horiz-adv-x="913" d="M871 744V562H328V469H860V288H328V186H879V0H48V744H871ZM408 944H687L586 789H329L408 944Z" />
<glyph unicode="&#xca;" glyph-name="Ecircumflex" horiz-adv-x="913" d="M871 744V562H328V469H860V288H328V186H879V0H48V744H871ZM774 789H530L468 847L407 789H166L328 944H610L774 789Z" />
<glyph unicode="&#xcb;" glyph-name="Edieresis" horiz-adv-x="913" d="M871 744V562H328V469H860V288H328V186H879V0H48V744H871ZM738 789H493V944H738V789ZM445 789H199V944H445V789Z" />
<glyph unicode="&#xcc;" glyph-name="Igrave" horiz-adv-x="379" d="M331 0H48V744H331V0ZM319 789H62L-39 944H240L319 789Z" />
<glyph unicode="&#xcd;" glyph-name="Iacute" horiz-adv-x="379" d="M331 0H48V744H331V0ZM399 944H678L577 789H320L399 944Z" />
<glyph unicode="&#xce;" glyph-name="Icircumflex" horiz-adv-x="379" d="M331 0H48V744H331V0ZM494 789H250L188 847L127 789H-114L48 944H330L494 789Z" />
<glyph unicode="&#xcf;" glyph-name="Idieresis" horiz-adv-x="379" d="M331 0H48V744H331V0ZM459 789H214V944H459V789ZM166 789H-80V944H166V789Z" />
<glyph unicode="&#xd0;" glyph-name="Eth" horiz-adv-x="1148" d="M63 296H2V453H63V744H591Q752 744 856 714T1020 634T1104 521T1128 392V362Q1128 320 1119 277T1088 193T1026 118T928 56T786 15T592 0H63V296ZM347 453H648V296H347V197H558Q651 197 705 215T788
259T825 316T833 371V377Q833 401 825 431T789 487T706 531T558 549H347V453Z" />
<glyph unicode="&#xd1;" glyph-name="Ntilde" horiz-adv-x="1128" d="M366 744L798 321V744H1080V0H796L330 451V0H48V744H366ZM696 793Q679 793 665 794T636 799T603 808T561 822Q538 830 525 833T501 837Q490 837 487 831T483 816V787H322V872Q322 887 326 904T343
936T377 960T435 970H439Q456 970 470 969T500 963T534 954T576 941Q596 934 610 930T635 926Q643 926 647 932T652 946V975H813V896Q813 880 810 862T794 829T760 803T701 793H696V793Z" />
<glyph unicode="&#xd2;" glyph-name="Ograve" horiz-adv-x="1176" d="M611 758Q731 758 818 741T965 694T1062 626T1119 547T1146 465T1153 389V359Q1153 324 1147 283T1120 201T1063 121T966 52T818 4T611 -14H566Q446 -14 359 4T211 52T114 120T57 200T30 283T23
359V389Q23 424 29 465T56 547T114 626T211 693T358 740T566 758H611ZM859 382Q859 412 848 443T806 499T724 541T588 558Q504 558 451 542T369 500T328 443T317 382V370Q317 341 328 309T370 249T452 205T588 187Q670 187 723 204T806 247T847 306T859 368V382ZM717
789H460L359 944H638L717 789Z" />
<glyph unicode="&#xd3;" glyph-name="Oacute" horiz-adv-x="1176" d="M611 758Q731 758 818 741T965 694T1062 626T1119 547T1146 465T1153 389V359Q1153 324 1147 283T1120 201T1063 121T966 52T818 4T611 -14H566Q446 -14 359 4T211 52T114 120T57 200T30 283T23
359V389Q23 424 29 465T56 547T114 626T211 693T358 740T566 758H611ZM859 382Q859 412 848 443T806 499T724 541T588 558Q504 558 451 542T369 500T328 443T317 382V370Q317 341 328 309T370 249T452 205T588 187Q670 187 723 204T806 247T847 306T859 368V382ZM541
944H820L719 789H462L541 944Z" />
<glyph unicode="&#xd4;" glyph-name="Ocircumflex" horiz-adv-x="1176" d="M611 758Q731 758 818 741T965 694T1062 626T1119 547T1146 465T1153 389V359Q1153 324 1147 283T1120 201T1063 121T966 52T818 4T611 -14H566Q446 -14 359 4T211 52T114 120T57 200T30
283T23 359V389Q23 424 29 465T56 547T114 626T211 693T358 740T566 758H611ZM859 382Q859 412 848 443T806 499T724 541T588 558Q504 558 451 542T369 500T328 443T317 382V370Q317 341 328 309T370 249T452 205T588 187Q670 187 723 204T806 247T847 306T859
368V382ZM893 789H649L587 847L526 789H285L447 944H729L893 789Z" />
<glyph unicode="&#xd5;" glyph-name="Otilde" horiz-adv-x="1176" d="M611 758Q731 758 818 741T965 694T1062 626T1119 547T1146 465T1153 389V359Q1153 324 1147 283T1120 201T1063 121T966 52T818 4T611 -14H566Q446 -14 359 4T211 52T114 120T57 200T30 283T23
359V389Q23 424 29 465T56 547T114 626T211 693T358 740T566 758H611ZM859 382Q859 412 848 443T806 499T724 541T588 558Q504 558 451 542T369 500T328 443T317 382V370Q317 341 328 309T370 249T452 205T588 187Q670 187 723 204T806 247T847 306T859 368V382ZM715
795Q698 795 684 796T655 801T622 810T580 824Q557 832 544 835T520 839Q509 839 506 833T502 818V789H341V874Q341 889 345 906T362 938T396 962T454 972H458Q475 972 489 971T519 965T553 956T595 943Q615 936 629 932T654 928Q662 928 666 934T671 948V977H832V898Q832
882 829 864T813 831T779 805T720 795H715V795Z" />
<glyph unicode="&#xd6;" glyph-name="Odieresis" horiz-adv-x="1176" d="M611 758Q731 758 818 741T965 694T1062 626T1119 547T1146 465T1153 389V359Q1153 324 1147 283T1120 201T1063 121T966 52T818 4T611 -14H566Q446 -14 359 4T211 52T114 120T57 200T30
283T23 359V389Q23 424 29 465T56 547T114 626T211 693T358 740T566 758H611ZM859 382Q859 412 848 443T806 499T724 541T588 558Q504 558 451 542T369 500T328 443T317 382V370Q317 341 328 309T370 249T452 205T588 187Q670 187 723 204T806 247T847 306T859
368V382ZM857 789H612V944H857V789ZM564 789H318V944H564V789Z" />
<glyph unicode="&#xd7;" glyph-name="multiply" horiz-adv-x="551" d="M275 200L121 61L12 179L155 308L13 434L119 554L274 415L428 554L538 436L394 307L538 178L431 61L275 200Z" />
<glyph unicode="&#xd8;" glyph-name="Oslash" horiz-adv-x="1181" d="M568 -13Q474 -13 400 -1T268 34L224 0H-6Q14 16 38 34Q58 49 83 68T134 108Q72 161 47 225T22 358V388Q22 423 29 464T56 547T113 626T211 693T359 739T568 757H614Q707 757 779 745T908 711L951
744H1182L1044 637Q1105 586 1132 523T1159 388V358Q1159 323 1152 282T1125 200T1067 121T970 53T822 5T614 -13H568ZM313 370Q313 344 320 319T344 270L708 555Q660 561 590 561Q505 561 451 545T367 504T325 447T313 383V370ZM590 185Q674 185 727 201T812 244T856
304T868 369V383Q868 408 862 433T839 480L470 192Q495 189 525 187T590 185Z" />
<glyph unicode="&#xd9;" glyph-name="Ugrave" horiz-adv-x="1104" d="M40 744H325V411Q325 377 334 342T368 277T438 230T553 211Q622 211 666 229T736 277T770 341T780 411V744H1064V389Q1064 353 1057 310T1031 221T977 135T889 60T757 8T574 -12H534Q426 -12
347 7T214 60T125 134T72 221T47 309T40 389V744ZM692 788H435L334 943H613L692 788Z" />
<glyph unicode="&#xda;" glyph-name="Uacute" horiz-adv-x="1104" d="M40 744H325V411Q325 377 334 342T368 277T438 230T553 211Q622 211 666 229T736 277T770 341T780 411V744H1064V389Q1064 353 1057 310T1031 221T977 135T889 60T757 8T574 -12H534Q426 -12
347 7T214 60T125 134T72 221T47 309T40 389V744ZM491 944H770L669 789H412L491 944Z" />
<glyph unicode="&#xdb;" glyph-name="Ucircumflex" horiz-adv-x="1104" d="M40 744H325V411Q325 377 334 342T368 277T438 230T553 211Q622 211 666 229T736 277T770 341T780 411V744H1064V389Q1064 353 1057 310T1031 221T977 135T889 60T757 8T574 -12H534Q426
-12 347 7T214 60T125 134T72 221T47 309T40 389V744ZM855 789H611L549 847L488 789H247L409 944H691L855 789Z" />
<glyph unicode="&#xdc;" glyph-name="Udieresis" horiz-adv-x="1104" d="M40 744H325V411Q325 377 334 342T368 277T438 230T553 211Q622 211 666 229T736 277T770 341T780 411V744H1064V389Q1064 353 1057 310T1031 221T977 135T889 60T757 8T574 -12H534Q426
-12 347 7T214 60T125 134T72 221T47 309T40 389V744ZM821 789H576V944H821V789ZM528 789H282V944H528V789Z" />
<glyph unicode="&#xdd;" glyph-name="Yacute" horiz-adv-x="1049" d="M387 280L-20 744H320L537 487L758 744H1069L671 278V0H387V280ZM482 944H761L660 789H403L482 944Z" />
<glyph unicode="&#xde;" glyph-name="Thorn" horiz-adv-x="1035" d="M332 120V0H48V744H332V632H661Q765 632 834 614T944 562T1002 484T1019 385V370Q1019 319 1002 274T944 194T834 140T661 120H332ZM332 307H631Q678 307 701 325T724 376V379Q724 411 702 429T631
447H332V307Z" />
<glyph unicode="&#xdf;" glyph-name="germandbls" horiz-adv-x="916" d="M711 435Q750 428 784 414T844 375T885 318T900 240V228Q900 186 887 146T838 73T742 20T583 0H367V169H497Q533 169 556 174T592 189T609 211T614 238V240Q614 254 610 266T592 288T557
302T498 308H367V478H487Q517 478 535 483T564 495T577 513T581 532V533Q581 543 578 553T563 571T525 585T455 591H434Q397 591 374 586T337 571T318 545T312 511V0H40V527Q40 551 44 577T62 627T99 672T163 709T260 734T397 744H475Q603 744 676 728T787 686T833
630T843 572V565Q843 538 832 516T803 478T761 450T711 435Z" />
<glyph unicode="&#xe0;" glyph-name="agrave" horiz-adv-x="846" d="M521 254L341 222Q306 216 291 206T275 176V175Q275 166 279 156T292 138T318 125T360 120Q397 120 427 129T478 154T510 190T521 231V254ZM526 72Q516 62 498 48T449 21T376 -1T274 -10H263Q195
-10 148 4T71 43T28 99T14 163V175Q14 209 25 235T63 281T130 313T232 331L491 354Q508 356 514 362T521 380Q521 387 518 394T502 408T467 417T404 421H400Q357 421 333 415T298 400T283 382T279 366H27V372Q27 399 35 430T78 489T182 534T372 552H428Q512 552
571 545T670 524T733 493T768 457T783 417T787 379V180Q787 169 791 163T810 157H839V0H613Q578 0 555 18T526 72ZM539 583L428 744H698L786 583H539Z" />
<glyph unicode="&#xe1;" glyph-name="aacute" horiz-adv-x="846" d="M521 254L341 222Q306 216 291 206T275 176V175Q275 166 279 156T292 138T318 125T360 120Q397 120 427 129T478 154T510 190T521 231V254ZM526 72Q516 62 498 48T449 21T376 -1T274 -10H263Q195
-10 148 4T71 43T28 99T14 163V175Q14 209 25 235T63 281T130 313T232 331L491 354Q508 356 514 362T521 380Q521 387 518 394T502 408T467 417T404 421H400Q357 421 333 415T298 400T283 382T279 366H27V372Q27 399 35 430T78 489T182 534T372 552H428Q512 552
571 545T670 524T733 493T768 457T783 417T787 379V180Q787 169 791 163T810 157H839V0H613Q578 0 555 18T526 72ZM369 744H637L526 583H280L369 744Z" />
<glyph unicode="&#xe2;" glyph-name="acircumflex" horiz-adv-x="846" d="M521 254L341 222Q306 216 291 206T275 176V175Q275 166 279 156T292 138T318 125T360 120Q397 120 427 129T478 154T510 190T521 231V254ZM526 72Q516 62 498 48T449 21T376 -1T274 -10H263Q195
-10 148 4T71 43T28 99T14 163V175Q14 209 25 235T63 281T130 313T232 331L491 354Q508 356 514 362T521 380Q521 387 518 394T502 408T467 417T404 421H400Q357 421 333 415T298 400T283 382T279 366H27V372Q27 399 35 430T78 489T182 534T372 552H428Q512 552
571 545T670 524T733 493T768 457T783 417T787 379V180Q787 169 791 163T810 157H839V0H613Q578 0 555 18T526 72ZM695 582H458L400 648L342 582H109L261 744H542L695 582Z" />
<glyph unicode="&#xe3;" glyph-name="atilde" horiz-adv-x="846" d="M521 254L341 222Q306 216 291 206T275 176V175Q275 166 279 156T292 138T318 125T360 120Q397 120 427 129T478 154T510 190T521 231V254ZM526 72Q516 62 498 48T449 21T376 -1T274 -10H263Q195
-10 148 4T71 43T28 99T14 163V175Q14 209 25 235T63 281T130 313T232 331L491 354Q508 356 514 362T521 380Q521 387 518 394T502 408T467 417T404 421H400Q357 421 333 415T298 400T283 382T279 366H27V372Q27 399 35 430T78 489T182 534T372 552H428Q512 552
571 545T670 524T733 493T768 457T783 417T787 379V180Q787 169 791 163T810 157H839V0H613Q578 0 555 18T526 72ZM525 587Q510 587 497 588T468 593T435 602T393 616Q371 623 359 626T337 630Q327 630 324 624T321 609V582H162V663Q162 678 166 695T182 727T215
750T272 760H276Q292 760 306 759T334 754T366 746T409 732Q429 725 441 721T464 717Q472 717 475 723T479 737V766H639V690Q639 674 636 656T621 623T587 597T529 587H525V587Z" />
<glyph unicode="&#xe4;" glyph-name="adieresis" horiz-adv-x="846" d="M521 254L341 222Q306 216 291 206T275 176V175Q275 166 279 156T292 138T318 125T360 120Q397 120 427 129T478 154T510 190T521 231V254ZM526 72Q516 62 498 48T449 21T376 -1T274 -10H263Q195
-10 148 4T71 43T28 99T14 163V175Q14 209 25 235T63 281T130 313T232 331L491 354Q508 356 514 362T521 380Q521 387 518 394T502 408T467 417T404 421H400Q357 421 333 415T298 400T283 382T279 366H27V372Q27 399 35 430T78 489T182 534T372 552H428Q512 552
571 545T670 524T733 493T768 457T783 417T787 379V180Q787 169 791 163T810 157H839V0H613Q578 0 555 18T526 72ZM662 583H424V744H662V583ZM378 583H141V744H378V583Z" />
<glyph unicode="&#xe5;" glyph-name="aring" horiz-adv-x="846" d="M521 254L341 222Q306 216 291 206T275 176V175Q275 166 279 156T292 138T318 125T360 120Q397 120 427 129T478 154T510 190T521 231V254ZM526 72Q516 62 498 48T449 21T376 -1T274 -10H263Q195
-10 148 4T71 43T28 99T14 163V175Q14 209 25 235T63 281T130 313T232 331L491 354Q508 356 514 362T521 380Q521 387 518 394T502 408T467 417T404 421H400Q357 421 333 415T298 400T283 382T279 366H27V372Q27 399 35 430T78 489T182 534T372 552H428Q512 552
571 545T670 524T733 493T768 457T783 417T787 379V180Q787 169 791 163T810 157H839V0H613Q578 0 555 18T526 72ZM203 696Q203 720 212 741T245 779T306 804T401 814Q458 814 495 805T555 779T587 742T596 696Q596 671 587 650T556 612T496 587T401 577Q343 577
305 586T244 612T212 650T203 696ZM326 696Q326 676 344 664T401 651Q439 651 456 663T474 696Q474 716 457 728T401 740Q362 740 344 728T326 696Z" />
<glyph unicode="&#xe6;" glyph-name="ae" horiz-adv-x="1381" d="M939 421Q862 421 828 399T785 340H1095Q1087 378 1052 399T941 421H939ZM359 119Q396 119 425 128T474 153T506 189T517 231V254L339 223Q306 217 290 207T274 177V176Q274 166 278 156T292 138T318
124T359 119ZM1362 194Q1362 175 1357 153T1338 107T1297 62T1226 23T1119 -4T969 -14H914Q843 -14 789 -5T693 19T623 54T572 99Q561 87 540 68T486 32T404 3T290 -10H279Q204 -10 154 4T72 43T28 99T14 163V175Q14 243 63 282T231 332L494 355Q508 357 512 363T517
381V382Q517 389 514 395T498 407T463 416T401 420H396Q354 420 331 414T296 400T282 382T279 366H28V372Q28 389 30 409T44 449T76 487T136 520T230 543T369 552H424Q479 552 520 548T591 536T641 520T674 502Q688 511 708 519T758 535T825 547T911 552H968Q1056
552 1120 539T1228 505T1298 454T1339 393T1359 326T1364 260V230H782Q785 209 795 191T825 160T873 139T944 131H945Q994 131 1024 139T1069 159T1090 181T1096 196H1362V194Z" />
<glyph unicode="&#xe7;" glyph-name="ccedilla" horiz-adv-x="887" d="M415 -15Q329 -15 266 -2T159 32T88 82T45 141T25 203T19 263V281Q19 309 24 340T45 401T87 458T158 507T265 540T414 553H476Q566 553 630 541T738 508T808 461T849 408T867 356T872 313V310H594Q593
317 588 332T567 364T522 391T445 403H441Q398 403 370 392T325 364T302 324T295 278V273Q295 249 302 225T325 181T370 149T441 137H445Q493 137 521 149T566 177T587 210T594 234H872V232Q872 214 868 189T851 136T812 81T742 33T632 -2T475 -15H415ZM260 -167H369Q390
-167 397 -161T405 -145Q405 -136 398 -130T369 -123H298V0H436V-49Q496 -49 533 -56T592 -76T620 -109T628 -151V-154Q628 -175 620 -194T591 -228T533 -250T435 -259H260V-167Z" />
<glyph unicode="&#xe8;" glyph-name="egrave" horiz-adv-x="888" d="M444 421Q405 421 378 415T333 399T305 373T289 340H599Q591 378 556 399T444 421ZM869 194Q869 175 864 153T844 107T802 61T731 23T624 -4T472 -15H419Q295 -15 217 10T95 76T35 165T19 262V282Q19
329 34 377T92 464T213 528T416 553H471Q559 553 622 541T730 506T802 455T845 394T865 327T871 260V230H286Q289 209 299 191T329 160T378 139T449 131H450Q498 131 527 139T573 159T594 180T601 196H869V194ZM319 583L208 744H478L566 583H319Z" />
<glyph unicode="&#xe9;" glyph-name="eacute" horiz-adv-x="888" d="M444 421Q405 421 378 415T333 399T305 373T289 340H599Q591 378 556 399T444 421ZM869 194Q869 175 864 153T844 107T802 61T731 23T624 -4T472 -15H419Q295 -15 217 10T95 76T35 165T19 262V282Q19
329 34 377T92 464T213 528T416 553H471Q559 553 622 541T730 506T802 455T845 394T865 327T871 260V230H286Q289 209 299 191T329 160T378 139T449 131H450Q498 131 527 139T573 159T594 180T601 196H869V194ZM413 744H681L570 583H324L413 744Z" />
<glyph unicode="&#xea;" glyph-name="ecircumflex" horiz-adv-x="888" d="M444 421Q405 421 378 415T333 399T305 373T289 340H599Q591 378 556 399T444 421ZM869 194Q869 175 864 153T844 107T802 61T731 23T624 -4T472 -15H419Q295 -15 217 10T95 76T35 165T19
262V282Q19 329 34 377T92 464T213 528T416 553H471Q559 553 622 541T730 506T802 455T845 394T865 327T871 260V230H286Q289 209 299 191T329 160T378 139T449 131H450Q498 131 527 139T573 159T594 180T601 196H869V194ZM739 582H502L444 648L386 582H153L305
744H586L739 582Z" />
<glyph unicode="&#xeb;" glyph-name="edieresis" horiz-adv-x="888" d="M444 421Q405 421 378 415T333 399T305 373T289 340H599Q591 378 556 399T444 421ZM869 194Q869 175 864 153T844 107T802 61T731 23T624 -4T472 -15H419Q295 -15 217 10T95 76T35 165T19
262V282Q19 329 34 377T92 464T213 528T416 553H471Q559 553 622 541T730 506T802 455T845 394T865 327T871 260V230H286Q289 209 299 191T329 160T378 139T449 131H450Q498 131 527 139T573 159T594 180T601 196H869V194ZM706 583H468V744H706V583ZM422 583H185V744H422V583Z"
/>
<glyph unicode="&#xec;" glyph-name="igrave" horiz-adv-x="352" d="M312 0H40V538H312V0ZM53 583L-58 744H212L300 583H53Z" />
<glyph unicode="&#xed;" glyph-name="iacute" horiz-adv-x="352" d="M312 0H40V538H312V0ZM399 744H667L556 583H310L399 744Z" />
<glyph unicode="&#xee;" glyph-name="icircumflex" horiz-adv-x="352" d="M410 583H218L174 649L131 583H-59L50 744H301L410 583ZM312 0H40V538H312V0Z" />
<glyph unicode="&#xef;" glyph-name="idieresis" horiz-adv-x="352" d="M383 583H194V744H383V583ZM157 583H-31V744H157V583ZM312 0H40V538H312V0Z" />
<glyph unicode="&#xf0;" glyph-name="eth" horiz-adv-x="927" d="M432 -15Q309 -15 229 9T103 73T38 160T19 255V278Q19 327 34 373T85 456T181 515T332 537H346Q424 537 476 523T567 489L435 584L159 554V645L325 663L214 744H541L611 694L824 717V626L722 615Q773
578 808 542T866 467T898 388T908 302V282Q908 252 904 219T886 152T843 89T769 36T653 -1T487 -15H432ZM632 273Q632 295 625 317T598 358T546 387T464 399H462Q412 399 380 388T328 358T302 318T294 273V269Q294 246 301 223T328 181T379 150T462 138H463Q513
138 546 150T598 181T624 223T632 269V273Z" />
<glyph unicode="&#xf1;" glyph-name="ntilde" horiz-adv-x="897" d="M40 538H310V443Q320 452 341 470T396 506T477 537T588 550H594Q669 550 720 530T801 480T845 414T858 346V0H585V257Q585 311 555 346T455 381Q386 381 349 344T312 250V0H40V538ZM573 585Q558
585 545 586T516 591T483 600T441 614Q419 621 407 624T385 628Q375 628 372 622T369 607V580H210V661Q210 676 214 693T230 725T263 748T320 758H324Q340 758 354 757T382 752T414 744T457 730Q477 723 489 719T512 715Q520 715 523 721T527 735V764H687V688Q687
672 684 654T669 621T635 595T577 585H573V585Z" />
<glyph unicode="&#xf2;" glyph-name="ograve" horiz-adv-x="927" d="M427 -15Q341 -15 277 -3T168 31T94 81T49 140T26 203T19 264V280Q19 308 25 339T47 401T93 459T167 507T276 540T426 553H502Q591 553 656 541T766 507T839 459T882 402T903 340T908 281V263Q908
234 903 203T883 140T841 81T768 32T657 -2T501 -15H427ZM464 401Q414 401 381 390T329 360T303 320T295 275V271Q295 249 302 226T329 183T380 151T464 138H465Q515 138 547 151T599 183T625 226T633 271V275Q633 297 626 319T599 360T548 389T465 401H464ZM340
583L229 744H499L587 583H340Z" />
<glyph unicode="&#xf3;" glyph-name="oacute" horiz-adv-x="927" d="M427 -15Q341 -15 277 -3T168 31T94 81T49 140T26 203T19 264V280Q19 308 25 339T47 401T93 459T167 507T276 540T426 553H502Q591 553 656 541T766 507T839 459T882 402T903 340T908 281V263Q908
234 903 203T883 140T841 81T768 32T657 -2T501 -15H427ZM464 401Q414 401 381 390T329 360T303 320T295 275V271Q295 249 302 226T329 183T380 151T464 138H465Q515 138 547 151T599 183T625 226T633 271V275Q633 297 626 319T599 360T548 389T465 401H464ZM429
744H697L586 583H340L429 744Z" />
<glyph unicode="&#xf4;" glyph-name="ocircumflex" horiz-adv-x="927" d="M427 -15Q341 -15 277 -3T168 31T94 81T49 140T26 203T19 264V280Q19 308 25 339T47 401T93 459T167 507T276 540T426 553H502Q591 553 656 541T766 507T839 459T882 402T903 340T908 281V263Q908
234 903 203T883 140T841 81T768 32T657 -2T501 -15H427ZM464 401Q414 401 381 390T329 360T303 320T295 275V271Q295 249 302 226T329 183T380 151T464 138H465Q515 138 547 151T599 183T625 226T633 271V275Q633 297 626 319T599 360T548 389T465 401H464ZM757
582H520L462 648L404 582H171L323 744H604L757 582Z" />
<glyph unicode="&#xf5;" glyph-name="otilde" horiz-adv-x="927" d="M427 -15Q341 -15 277 -3T168 31T94 81T49 140T26 203T19 264V280Q19 308 25 339T47 401T93 459T167 507T276 540T426 553H502Q591 553 656 541T766 507T839 459T882 402T903 340T908 281V263Q908
234 903 203T883 140T841 81T768 32T657 -2T501 -15H427ZM464 401Q414 401 381 390T329 360T303 320T295 275V271Q295 249 302 226T329 183T380 151T464 138H465Q515 138 547 151T599 183T625 226T633 271V275Q633 297 626 319T599 360T548 389T465 401H464ZM586
587Q571 587 558 588T529 593T496 602T454 616Q432 623 420 626T398 630Q388 630 385 624T382 609V582H223V663Q223 678 227 695T243 727T276 750T333 760H337Q353 760 367 759T395 754T427 746T470 732Q490 725 502 721T525 717Q533 717 536 723T540 737V766H700V690Q700
674 697 656T682 623T648 597T590 587H586V587Z" />
<glyph unicode="&#xf6;" glyph-name="odieresis" horiz-adv-x="927" d="M427 -15Q341 -15 277 -3T168 31T94 81T49 140T26 203T19 264V280Q19 308 25 339T47 401T93 459T167 507T276 540T426 553H502Q591 553 656 541T766 507T839 459T882 402T903 340T908 281V263Q908
234 903 203T883 140T841 81T768 32T657 -2T501 -15H427ZM464 401Q414 401 381 390T329 360T303 320T295 275V271Q295 249 302 226T329 183T380 151T464 138H465Q515 138 547 151T599 183T625 226T633 271V275Q633 297 626 319T599 360T548 389T465 401H464ZM724
583H486V744H724V583ZM440 583H203V744H440V583Z" />
<glyph unicode="&#xf7;" glyph-name="divide" horiz-adv-x="614" d="M407 432H207V592H407V432ZM584 384V233H30V384H584ZM407 23H207V183H407V23Z" />
<glyph unicode="&#xf8;" glyph-name="oslash" horiz-adv-x="927" d="M425 -15Q356 -15 299 -4T200 24L163 0H-14L104 82Q62 114 41 160T19 264V280Q19 308 25 339T48 401T94 459T168 507T277 540T428 553H503Q578 553 634 541T726 515L760 538H940L825 459Q908
390 908 281V263Q908 234 903 203T883 140T839 81T766 32T655 -2T499 -15H425ZM289 271Q289 242 299 216L553 392Q536 397 514 400T465 404H463Q411 404 377 393T324 362T297 320T289 275V271ZM465 136Q517 136 551 149T604 182T631 225T639 271V275Q639 287 638
299T631 324L378 148Q412 136 464 136H465Z" />
<glyph unicode="&#xf9;" glyph-name="ugrave" horiz-adv-x="887" d="M847 0H577V96Q567 86 547 68T493 32T413 1T304 -12H297Q222 -12 173 8T93 60T51 128T39 198V538H312V281Q312 255 318 233T340 193T378 167T436 157Q504 157 540 195T576 288V538H847V0ZM323
583L212 744H482L570 583H323Z" />
<glyph unicode="&#xfa;" glyph-name="uacute" horiz-adv-x="887" d="M847 0H577V96Q567 86 547 68T493 32T413 1T304 -12H297Q222 -12 173 8T93 60T51 128T39 198V538H312V281Q312 255 318 233T340 193T378 167T436 157Q504 157 540 195T576 288V538H847V0ZM404
744H672L561 583H315L404 744Z" />
<glyph unicode="&#xfb;" glyph-name="ucircumflex" horiz-adv-x="887" d="M847 0H577V96Q567 86 547 68T493 32T413 1T304 -12H297Q222 -12 173 8T93 60T51 128T39 198V538H312V281Q312 255 318 233T340 193T378 167T436 157Q504 157 540 195T576 288V538H847V0ZM736
582H499L441 648L383 582H150L302 744H583L736 582Z" />
<glyph unicode="&#xfc;" glyph-name="udieresis" horiz-adv-x="887" d="M847 0H577V96Q567 86 547 68T493 32T413 1T304 -12H297Q222 -12 173 8T93 60T51 128T39 198V538H312V281Q312 255 318 233T340 193T378 167T436 157Q504 157 540 195T576 288V538H847V0ZM703
583H465V744H703V583ZM419 583H182V744H419V583Z" />
<glyph unicode="&#xfd;" glyph-name="yacute" horiz-adv-x="827" d="M119 -22H241Q256 -22 261 -17T266 -5V-4Q266 4 260 16T243 50L-11 538H279L429 192L568 538H838L579 -23Q540 -108 493 -148T372 -188H119V-22ZM381 744H649L538 583H292L381 744Z" />
<glyph unicode="&#xfe;" glyph-name="thorn" horiz-adv-x="933" d="M312 268Q312 246 321 223T351 182T403 152T479 140H484Q529 140 559 152T606 182T631 223T638 268V272Q638 295 631 318T607 359T559 388T484 399H479Q434 399 403 388T351 359T322 319T312
272V268ZM312 744V463Q320 470 339 484T391 512T469 537T574 548H595Q688 548 749 526T847 467T899 383T914 285V264Q914 213 898 164T845 77T745 14T589 -10H570Q512 -10 468 -1T391 21T339 46T312 66V-188H40V744H312Z" />
<glyph unicode="&#xff;" glyph-name="ydieresis" horiz-adv-x="827" d="M119 -22H241Q256 -22 261 -17T266 -5V-4Q266 4 260 16T243 50L-11 538H279L429 192L568 538H838L579 -23Q540 -108 493 -148T372 -188H119V-22ZM685 583H447V744H685V583ZM401 583H164V744H401V583Z"
/>
<glyph unicode="&#x100;" glyph-name="Amacron" horiz-adv-x="1107" d="M538 562L416 306H663L538 562ZM754 120H329L272 0H-16L352 744H734L1123 0H812L754 120ZM308 929H777V797H308V929Z" />
<glyph unicode="&#x101;" glyph-name="amacron" horiz-adv-x="846" d="M521 254L341 222Q306 216 291 206T275 176V175Q275 166 279 156T292 138T318 125T360 120Q397 120 427 129T478 154T510 190T521 231V254ZM526 72Q516 62 498 48T449 21T376 -1T274 -10H263Q195
-10 148 4T71 43T28 99T14 163V175Q14 209 25 235T63 281T130 313T232 331L491 354Q508 356 514 362T521 380Q521 387 518 394T502 408T467 417T404 421H400Q357 421 333 415T298 400T283 382T279 366H27V372Q27 399 35 430T78 489T182 534T372 552H428Q512 552
571 545T670 524T733 493T768 457T783 417T787 379V180Q787 169 791 163T810 157H839V0H613Q578 0 555 18T526 72ZM176 723H628V594H176V723Z" />
<glyph unicode="&#x102;" glyph-name="Abreve" horiz-adv-x="1107" d="M538 562L416 306H663L538 562ZM754 120H329L272 0H-16L352 744H734L1123 0H812L754 120ZM524 782Q451 782 407 801T338 847T306 903T298 952V954H481Q481 949 483 941T492 925T511 911T545
905Q565 905 577 911T596 925T605 941T607 954H787V952Q787 932 777 903T742 847T674 801T564 782H524V782Z" />
<glyph unicode="&#x103;" glyph-name="abreve" horiz-adv-x="846" d="M384 578Q313 578 269 596T201 640T169 694T161 742V744H342Q342 739 344 731T353 716T372 703T405 697Q424 697 436 702T455 715T464 731T467 744H645V742Q645 722 635 694T600 641T532 597T424
578H384V578ZM521 254L341 222Q306 216 291 206T275 176V175Q275 166 279 156T292 138T318 125T360 120Q397 120 427 129T478 154T510 190T521 231V254ZM526 72Q516 62 498 48T449 21T376 -1T274 -10H263Q195 -10 148 4T71 43T28 99T14 163V175Q14 209 25 235T63
281T130 313T232 331L491 354Q508 356 514 362T521 380Q521 387 518 394T502 408T467 417T404 421H400Q357 421 333 415T298 400T283 382T279 366H27V372Q27 399 35 430T78 489T182 534T372 552H428Q512 552 571 545T670 524T733 493T768 457T783 417T787 379V180Q787
169 791 163T810 157H839V0H613Q578 0 555 18T526 72Z" />
<glyph unicode="&#x104;" glyph-name="Aogonek" horiz-adv-x="1107" d="M538 562L416 306H663L538 562ZM754 120H329L272 0H-16L352 744H734L1123 0H812L754 120ZM815 -113Q815 -72 865 -47T1008 0H1122Q1096 -17 1079 -31T1062 -61Q1062 -82 1095 -82H1122V-188H962Q884
-188 850 -170T815 -116V-113Z" />
<glyph unicode="&#x105;" glyph-name="aogonek" horiz-adv-x="846" d="M521 254L341 222Q306 216 291 206T275 176V175Q275 166 279 156T292 138T318 125T360 120Q397 120 427 129T478 154T510 190T521 231V254ZM526 72Q516 62 498 48T449 21T376 -1T274 -10H263Q195
-10 148 4T71 43T28 99T14 163V175Q14 209 25 235T63 281T130 313T232 331L491 354Q508 356 514 362T521 380Q521 387 518 394T502 408T467 417T404 421H400Q357 421 333 415T298 400T283 382T279 366H27V372Q27 399 35 430T78 489T182 534T372 552H428Q512 552
571 545T670 524T733 493T768 457T783 417T787 379V180Q787 169 791 163T810 157H839V0H613Q578 0 555 18T526 72ZM532 -113Q532 -72 582 -47T725 0H839Q813 -17 796 -31T779 -61Q779 -82 812 -82H839V-188H679Q601 -188 567 -170T532 -116V-113Z" />
<glyph unicode="&#x106;" glyph-name="Cacute" horiz-adv-x="1126" d="M518 944H797L696 792H439L518 944ZM549 -14Q435 -14 352 4T210 51T115 120T58 200T30 283T23 360V389Q23 424 29 465T56 548T112 627T206 694T349 740T549 758H588Q701 758 783 743T923 702T1016
644T1072 578T1099 513T1106 457V444H811Q809 451 801 470T768 508T695 543T566 558Q489 558 441 543T365 502T327 446T317 384V372Q317 342 328 310T367 250T443 205T567 187Q622 187 661 195T727 215T770 241T795 269T807 294T812 309H1106V293Q1106 269 1099
237T1072 170T1015 103T922 44T782 2T588 -14H549Z" />
<glyph unicode="&#x107;" glyph-name="cacute" horiz-adv-x="887" d="M410 744H678L568 585H322L410 744ZM415 -15Q329 -15 266 -2T159 32T88 82T45 141T25 203T19 263V281Q19 309 24 340T45 401T87 458T158 507T265 540T414 553H476Q566 553 630 541T738 508T808
461T849 408T867 356T872 313V310H594Q593 317 588 332T567 364T522 391T445 403H441Q398 403 370 392T325 364T302 324T295 278V273Q295 249 302 225T325 181T370 149T441 137H445Q493 137 521 149T566 177T587 210T594 234H872V232Q872 214 868 189T851 136T812
81T742 33T632 -2T475 -15H415Z" />
<glyph unicode="&#x108;" glyph-name="Ccircumflex" horiz-adv-x="1126" d="M870 791H627L565 849L503 791H262L421 944H709L870 791ZM549 -14Q435 -14 352 4T210 51T115 120T58 200T30 283T23 360V389Q23 424 29 465T56 548T112 627T206 694T349 740T549 758H588Q701
758 783 743T923 702T1016 644T1072 578T1099 513T1106 457V444H811Q809 451 801 470T768 508T695 543T566 558Q489 558 441 543T365 502T327 446T317 384V372Q317 342 328 310T367 250T443 205T567 187Q622 187 661 195T727 215T770 241T795 269T807 294T812 309H1106V293Q1106
269 1099 237T1072 170T1015 103T922 44T782 2T588 -14H549Z" />
<glyph unicode="&#x109;" glyph-name="ccircumflex" horiz-adv-x="887" d="M738 584H501L444 648L386 584H152L304 744H585L738 584ZM415 -15Q329 -15 266 -2T159 32T88 82T45 141T25 203T19 263V281Q19 309 24 340T45 401T87 458T158 507T265 540T414 553H476Q566
553 630 541T738 508T808 461T849 408T867 356T872 313V310H594Q593 317 588 332T567 364T522 391T445 403H441Q398 403 370 392T325 364T302 324T295 278V273Q295 249 302 225T325 181T370 149T441 137H445Q493 137 521 149T566 177T587 210T594 234H872V232Q872
214 868 189T851 136T812 81T742 33T632 -2T475 -15H415Z" />
<glyph unicode="&#x10a;" glyph-name="Cdotaccent" horiz-adv-x="1126" d="M705 792H432V947H705V792ZM549 -14Q435 -14 352 4T210 51T115 120T58 200T30 283T23 360V389Q23 424 29 465T56 548T112 627T206 694T349 740T549 758H588Q701 758 783 743T923 702T1016
644T1072 578T1099 513T1106 457V444H811Q809 451 801 470T768 508T695 543T566 558Q489 558 441 543T365 502T327 446T317 384V372Q317 342 328 310T367 250T443 205T567 187Q622 187 661 195T727 215T770 241T795 269T807 294T812 309H1106V293Q1106 269 1099
237T1072 170T1015 103T922 44T782 2T588 -14H549Z" />
<glyph unicode="&#x10b;" glyph-name="cdotaccent" horiz-adv-x="887" d="M581 585H309V744H581V585ZM415 -15Q329 -15 266 -2T159 32T88 82T45 141T25 203T19 263V281Q19 309 24 340T45 401T87 458T158 507T265 540T414 553H476Q566 553 630 541T738 508T808
461T849 408T867 356T872 313V310H594Q593 317 588 332T567 364T522 391T445 403H441Q398 403 370 392T325 364T302 324T295 278V273Q295 249 302 225T325 181T370 149T441 137H445Q493 137 521 149T566 177T587 210T594 234H872V232Q872 214 868 189T851 136T812
81T742 33T632 -2T475 -15H415Z" />
<glyph unicode="&#x10c;" glyph-name="Ccaron" horiz-adv-x="1126" d="M261 944H506L568 886L629 944H871L712 792H423L261 944ZM549 -14Q435 -14 352 4T210 51T115 120T58 200T30 283T23 360V389Q23 424 29 465T56 548T112 627T206 694T349 740T549 758H588Q701
758 783 743T923 702T1016 644T1072 578T1099 513T1106 457V444H811Q809 451 801 470T768 508T695 543T566 558Q489 558 441 543T365 502T327 446T317 384V372Q317 342 328 310T367 250T443 205T567 187Q622 187 661 195T727 215T770 241T795 269T807 294T812 309H1106V293Q1106
269 1099 237T1072 170T1015 103T922 44T782 2T588 -14H549Z" />
<glyph unicode="&#x10d;" glyph-name="ccaron" horiz-adv-x="887" d="M151 744H389L447 679L505 744H740L590 585H302L151 744ZM415 -15Q329 -15 266 -2T159 32T88 82T45 141T25 203T19 263V281Q19 309 24 340T45 401T87 458T158 507T265 540T414 553H476Q566
553 630 541T738 508T808 461T849 408T867 356T872 313V310H594Q593 317 588 332T567 364T522 391T445 403H441Q398 403 370 392T325 364T302 324T295 278V273Q295 249 302 225T325 181T370 149T441 137H445Q493 137 521 149T566 177T587 210T594 234H872V232Q872
214 868 189T851 136T812 81T742 33T632 -2T475 -15H415Z" />
<glyph unicode="&#x10e;" glyph-name="Dcaron" horiz-adv-x="1133" d="M48 744H576Q737 744 841 714T1005 634T1089 521T1113 392V362Q1113 320 1104 277T1073 193T1011 118T913 56T771 15T577 0H48V744ZM332 197H543Q636 197 690 215T773 259T810 316T818 371V377Q818
401 810 431T774 487T691 531T543 549H332V197ZM179 944H423L485 886L546 944H787L626 789H344L179 944Z" />
<glyph unicode="&#x10f;" glyph-name="dcaron" horiz-adv-x="932" d="M620 274Q620 296 610 318T578 358T526 387T451 398H446Q402 398 373 387T326 359T302 319T295 274V269Q295 247 303 225T329 184T376 154T447 142H451Q494 142 526 153T579 183T610 223T620
269V274ZM892 744V0H621V78Q614 70 597 56T548 27T471 1T362 -10H345Q257 -10 195 12T94 72T37 159T19 262V283Q19 334 36 382T90 467T188 526T337 548H356Q418 548 463 539T541 517T592 491T620 470V744H892ZM933 744H1138L1110 575H919L933 744Z" />
<glyph unicode="&#x110;" glyph-name="Dcroat" horiz-adv-x="1148" d="M63 296H2V453H63V744H591Q752 744 856 714T1020 634T1104 521T1128 392V362Q1128 320 1119 277T1088 193T1026 118T928 56T786 15T592 0H63V296ZM347 453H648V296H347V197H558Q651 197 705
215T788 259T825 316T833 371V377Q833 401 825 431T789 487T706 531T558 549H347V453Z" />
<glyph unicode="&#x111;" glyph-name="dcroat" horiz-adv-x="932" d="M350 695H961V585H350V695ZM620 274Q620 296 610 318T578 358T526 387T451 398H446Q402 398 373 387T326 359T302 319T295 274V269Q295 247 303 225T329 184T376 154T447 142H451Q494 142 526
153T579 183T610 223T620 269V274ZM892 744V0H621V78Q614 70 597 56T548 27T471 1T362 -10H345Q257 -10 195 12T94 72T37 159T19 262V283Q19 334 36 382T90 467T188 526T337 548H356Q418 548 463 539T541 517T592 491T620 470V744H892Z" />
<glyph unicode="&#x112;" glyph-name="Emacron" horiz-adv-x="913" d="M871 744V562H328V469H860V288H328V186H879V0H48V744H871ZM234 929H703V797H234V929Z" />
<glyph unicode="&#x113;" glyph-name="emacron" horiz-adv-x="888" d="M444 421Q405 421 378 415T333 399T305 373T289 340H599Q591 378 556 399T444 421ZM869 194Q869 175 864 153T844 107T802 61T731 23T624 -4T472 -15H419Q295 -15 217 10T95 76T35 165T19
262V282Q19 329 34 377T92 464T213 528T416 553H471Q559 553 622 541T730 506T802 455T845 394T865 327T871 260V230H286Q289 209 299 191T329 160T378 139T449 131H450Q498 131 527 139T573 159T594 180T601 196H869V194ZM220 724H672V595H220V724Z" />
<glyph unicode="&#x114;" glyph-name="Ebreve" horiz-adv-x="913" d="M871 744V562H328V469H860V288H328V186H879V0H48V744H871ZM452 782Q379 782 335 801T266 847T234 903T226 952V954H409Q409 949 411 941T420 925T439 911T473 905Q493 905 505 911T524 925T533
941T535 954H715V952Q715 932 705 903T670 847T602 801T492 782H452V782Z" />
<glyph unicode="&#x115;" glyph-name="ebreve" horiz-adv-x="888" d="M427 579Q356 579 312 597T244 641T212 694T204 742V744H385Q385 739 387 732T396 717T415 704T448 698Q467 698 479 703T497 716T506 731T510 744H688V742Q688 722 678 695T643 641T575 597T467
579H427V579ZM444 421Q405 421 378 415T333 399T305 373T289 340H599Q591 378 556 399T444 421ZM869 194Q869 175 864 153T844 107T802 61T731 23T624 -4T472 -15H419Q295 -15 217 10T95 76T35 165T19 262V282Q19 329 34 377T92 464T213 528T416 553H471Q559 553
622 541T730 506T802 455T845 394T865 327T871 260V230H286Q289 209 299 191T329 160T378 139T449 131H450Q498 131 527 139T573 159T594 180T601 196H869V194Z" />
<glyph unicode="&#x116;" glyph-name="Edotaccent" horiz-adv-x="913" d="M871 744V562H328V469H860V288H328V186H879V0H48V744H871ZM605 789H334V950H605V789Z" />
<glyph unicode="&#x117;" glyph-name="edotaccent" horiz-adv-x="888" d="M582 585H310V744H582V585ZM444 421Q405 421 378 415T333 399T305 373T289 340H599Q591 378 556 399T444 421ZM869 194Q869 175 864 153T844 107T802 61T731 23T624 -4T472 -15H419Q295
-15 217 10T95 76T35 165T19 262V282Q19 329 34 377T92 464T213 528T416 553H471Q559 553 622 541T730 506T802 455T845 394T865 327T871 260V230H286Q289 209 299 191T329 160T378 139T449 131H450Q498 131 527 139T573 159T594 180T601 196H869V194Z" />
<glyph unicode="&#x118;" glyph-name="Eogonek" horiz-adv-x="913" d="M463 -113Q463 -72 512 -47T656 0H770Q744 -17 727 -31T709 -61Q709 -82 743 -82H773V-188H610Q532 -188 498 -170T463 -116V-113ZM871 744V562H328V469H860V288H328V186H879V0H48V744H871Z" />
<glyph unicode="&#x119;" glyph-name="eogonek" horiz-adv-x="888" d="M735 -188H571Q493 -188 459 -170T425 -116V-113Q425 -75 469 -52T607 -7Q581 -10 546 -12T472 -15H419Q295 -15 217 10T95 76T35 165T19 262V282Q19 329 34 377T92 464T213 528T416 553H471Q559
553 622 541T730 506T802 455T845 394T865 327T871 260V230H286Q289 209 299 191T329 160T378 139T449 131H450Q498 131 527 139T573 159T594 180T601 196H869V194Q869 136 835 92T731 2Q706 -16 689 -30T671 -61Q671 -82 704 -82H735V-188ZM444 421Q405 421 378
415T333 399T305 373T289 340H599Q591 378 556 399T444 421Z" />
<glyph unicode="&#x11a;" glyph-name="Ecaron" horiz-adv-x="913" d="M871 744V562H328V469H860V288H328V186H879V0H48V744H871ZM166 944H410L472 886L533 944H774L613 789H331L166 944Z" />
<glyph unicode="&#x11b;" glyph-name="ecaron" horiz-adv-x="888" d="M151 744H390L447 679L505 744H741L591 585H302L151 744ZM444 421Q405 421 378 415T333 399T305 373T289 340H599Q591 378 556 399T444 421ZM869 194Q869 175 864 153T844 107T802 61T731 23T624
-4T472 -15H419Q295 -15 217 10T95 76T35 165T19 262V282Q19 329 34 377T92 464T213 528T416 553H471Q559 553 622 541T730 506T802 455T845 394T865 327T871 260V230H286Q289 209 299 191T329 160T378 139T449 131H450Q498 131 527 139T573 159T594 180T601 196H869V194Z"
/>
<glyph unicode="&#x11c;" glyph-name="Gcircumflex" horiz-adv-x="1159" d="M879 791H636L574 849L512 791H271L430 944H718L879 791ZM525 -14Q423 -14 347 3T214 48T122 114T63 194T32 279T23 361V389Q23 429 31 472T62 556T122 633T218 698T358 742T550 758H589Q703
758 785 744T926 707T1019 654T1075 592T1103 529T1111 471V470H815Q813 477 805 492T771 524T700 552T574 564Q499 564 450 549T371 509T329 450T317 380V369Q317 333 331 300T375 240T454 197T572 181Q644 181 692 192T771 218T813 249T826 274H565V419H1116V0H937Q935
9 932 22T923 50T913 79T902 103Q891 91 867 71T801 33T697 0T548 -14H525Z" />
<glyph unicode="&#x11d;" glyph-name="gcircumflex" horiz-adv-x="942" d="M450 396Q405 396 375 387T327 362T302 328T294 288V283Q294 262 302 242T328 205T376 179T450 169H456Q501 169 533 179T587 205T618 241T628 283V286Q628 307 618 327T587 362T534 387T456
396H450ZM429 -195Q345 -195 285 -185T182 -158T115 -120T75 -78T57 -37T52 -3V0H325Q326 -5 330 -12T349 -27T391 -40T465 -45H468Q517 -45 549 -33T599 -2T624 41T631 92V103Q622 94 604 81T555 54T479 32T369 23H353Q260 23 197 44T94 102T37 184T19 279V297Q19
344 35 389T88 469T185 526T335 548H357Q423 548 469 539T548 518T600 492T630 469V538H902V90Q902 49 888 0T831 -93T710 -166T506 -195H429ZM739 582H502L444 648L386 582H153L305 744H586L739 582Z" />
<glyph unicode="&#x11e;" glyph-name="Gbreve" horiz-adv-x="1159" d="M525 -14Q423 -14 347 3T214 48T122 114T63 194T32 279T23 361V389Q23 429 31 472T62 556T122 633T218 698T358 742T550 758H589Q703 758 785 744T926 707T1019 654T1075 592T1103 529T1111
471V470H815Q813 477 805 492T771 524T700 552T574 564Q499 564 450 549T371 509T329 450T317 380V369Q317 333 331 300T375 240T454 197T572 181Q644 181 692 192T771 218T813 249T826 274H565V419H1116V0H937Q935 9 932 22T923 50T913 79T902 103Q891 91 867
71T801 33T697 0T548 -14H525ZM557 784Q484 784 440 803T371 849T339 905T331 954V956H514Q514 951 516 943T525 927T544 913T578 907Q598 907 610 913T629 927T638 943T640 956H820V954Q820 934 810 905T775 849T707 803T597 784H557V784Z" />
<glyph unicode="&#x11f;" glyph-name="gbreve" horiz-adv-x="942" d="M450 396Q405 396 375 387T327 362T302 328T294 288V283Q294 262 302 242T328 205T376 179T450 169H456Q501 169 533 179T587 205T618 241T628 283V286Q628 307 618 327T587 362T534 387T456
396H450ZM429 -195Q345 -195 285 -185T182 -158T115 -120T75 -78T57 -37T52 -3V0H325Q326 -5 330 -12T349 -27T391 -40T465 -45H468Q517 -45 549 -33T599 -2T624 41T631 92V103Q622 94 604 81T555 54T479 32T369 23H353Q260 23 197 44T94 102T37 184T19 279V297Q19
344 35 389T88 469T185 526T335 548H357Q423 548 469 539T548 518T600 492T630 469V538H902V90Q902 49 888 0T831 -93T710 -166T506 -195H429ZM686 742Q686 722 676 694T641 639T573 595T465 577H425Q353 577 310 595T242 639T210 693T202 742V744H383Q383 739
385 731T394 715T413 702T446 696Q466 696 478 701T496 715T505 731T508 744H686V742V742Z" />
<glyph unicode="&#x120;" glyph-name="Gdotaccent" horiz-adv-x="1159" d="M712 792H439V947H712V792ZM525 -14Q423 -14 347 3T214 48T122 114T63 194T32 279T23 361V389Q23 429 31 472T62 556T122 633T218 698T358 742T550 758H589Q703 758 785 744T926 707T1019
654T1075 592T1103 529T1111 471V470H815Q813 477 805 492T771 524T700 552T574 564Q499 564 450 549T371 509T329 450T317 380V369Q317 333 331 300T375 240T454 197T572 181Q644 181 692 192T771 218T813 249T826 274H565V419H1116V0H937Q935 9 932 22T923 50T913
79T902 103Q891 91 867 71T801 33T697 0T548 -14H525Z" />
<glyph unicode="&#x121;" glyph-name="gdotaccent" horiz-adv-x="942" d="M450 396Q405 396 375 387T327 362T302 328T294 288V283Q294 262 302 242T328 205T376 179T450 169H456Q501 169 533 179T587 205T618 241T628 283V286Q628 307 618 327T587 362T534 387T456
396H450ZM429 -195Q345 -195 285 -185T182 -158T115 -120T75 -78T57 -37T52 -3V0H325Q326 -5 330 -12T349 -27T391 -40T465 -45H468Q517 -45 549 -33T599 -2T624 41T631 92V103Q622 94 604 81T555 54T479 32T369 23H353Q260 23 197 44T94 102T37 184T19 279V297Q19
344 35 389T88 469T185 526T335 548H357Q423 548 469 539T548 518T600 492T630 469V538H902V90Q902 49 888 0T831 -93T710 -166T506 -195H429ZM579 583H308V744H579V583Z" />
<glyph unicode="&#x122;" glyph-name="uni0122" horiz-adv-x="1159" d="M485 -299Q496 -278 506 -253T520 -207H407V-48H665V-173Q665 -188 660 -205T648 -240T631 -272T615 -299H485ZM525 -14Q423 -14 347 3T214 48T122 114T63 194T32 279T23 361V389Q23 429
31 472T62 556T122 633T218 698T358 742T550 758H589Q703 758 785 744T926 707T1019 654T1075 592T1103 529T1111 471V470H815Q813 477 805 492T771 524T700 552T574 564Q499 564 450 549T371 509T329 450T317 380V369Q317 333 331 300T375 240T454 197T572 181Q644
181 692 192T771 218T813 249T826 274H565V419H1116V0H937Q935 9 932 22T923 50T913 79T902 103Q891 91 867 71T801 33T697 0T548 -14H525Z" />
<glyph unicode="&#x123;" glyph-name="uni0123" horiz-adv-x="942" d="M450 396Q405 396 375 387T327 362T302 328T294 288V283Q294 262 302 242T328 205T376 179T450 169H456Q501 169 533 179T587 205T618 241T628 283V286Q628 307 618 327T587 362T534 387T456
396H450ZM429 -195Q345 -195 285 -185T182 -158T115 -120T75 -78T57 -37T52 -3V0H325Q326 -5 330 -12T349 -27T391 -40T465 -45H468Q517 -45 549 -33T599 -2T624 41T631 92V103Q622 94 604 81T555 54T479 32T369 23H353Q260 23 197 44T94 102T37 184T19 279V297Q19
344 35 389T88 469T185 526T335 548H357Q423 548 469 539T548 518T600 492T630 469V538H902V90Q902 49 888 0T831 -93T710 -166T506 -195H429ZM493 834Q482 813 472 788T458 742H571V583H313V708Q313 723 318 740T330 775T346 807T363 834H493Z" />
<glyph unicode="&#x124;" glyph-name="Hcircumflex" horiz-adv-x="1128" d="M48 744H332V481H797V744H1080V0H797V283H332V0H48V744ZM868 789H624L562 847L501 789H260L422 944H704L868 789Z" />
<glyph unicode="&#x125;" glyph-name="hcircumflex" horiz-adv-x="897" d="M40 744H312V444Q321 453 341 470T396 505T477 536T588 550H594Q669 550 720 530T801 480T845 414T858 346V0H585V257Q585 311 555 346T455 381Q386 381 349 344T312 250V0H40V744ZM721
789H477L415 847L354 789H113L275 944H557L721 789Z" />
<glyph unicode="&#x126;" glyph-name="Hbar" horiz-adv-x="1159" d="M-3 679H1162V554H-3V679ZM63 744H347V481H812V744H1095V0H812V283H347V0H63V744Z" />
<glyph unicode="&#x127;" glyph-name="hbar" horiz-adv-x="897" d="M562 695V585H-29V695H562ZM40 744H312V444Q321 453 341 470T396 505T477 536T588 550H594Q669 550 720 530T801 480T845 414T858 346V0H585V257Q585 311 555 346T455 381Q386 381 349 344T312
250V0H40V744Z" />
<glyph unicode="&#x128;" glyph-name="Itilde" horiz-adv-x="379" d="M331 0H48V744H331V0ZM317 793Q300 793 286 794T257 799T224 808T182 822Q159 830 146 833T122 837Q111 837 108 831T104 816V787H-57V872Q-57 887 -53 904T-36 936T-2 960T56 970H60Q77 970
91 969T121 963T155 954T197 941Q217 934 231 930T256 926Q264 926 268 932T273 946V975H434V896Q434 880 431 862T415 829T381 803T322 793H317V793Z" />
<glyph unicode="&#x129;" glyph-name="itilde" horiz-adv-x="352" d="M277 585Q266 585 256 586T233 591T206 600T170 614Q138 628 125 628Q117 628 115 622T112 607V580H-20V658Q-20 673 -17 690T-3 722T24 746T71 756H74Q86 756 97 755T120 750T147 741T183
726Q199 720 208 717T226 713Q233 713 235 719T238 733V761H371V688Q371 672 368 654T356 621T328 595T281 585H277V585ZM312 0H40V538H312V0Z" />
<glyph unicode="&#x12a;" glyph-name="Imacron" horiz-adv-x="379" d="M-25 929H404V797H-25V929ZM331 0H48V744H331V0Z" />
<glyph unicode="&#x12b;" glyph-name="imacron" horiz-adv-x="352" d="M-14 722H366V593H-14V722ZM312 0H40V538H312V0Z" />
<glyph unicode="&#x12c;" glyph-name="Ibreve" horiz-adv-x="379" d="M331 0H48V744H331V0ZM172 782Q99 782 55 801T-14 847T-46 903T-54 952V954H129Q129 949 131 941T140 925T159 911T193 905Q213 905 225 911T244 925T253 941T255 954H435V952Q435 932 425
903T390 847T322 801T212 782H172V782Z" />
<glyph unicode="&#x12d;" glyph-name="ibreve" horiz-adv-x="352" d="M378 742Q378 720 371 692T342 638T283 594T184 576H170Q106 576 68 594T8 637T-20 691T-27 742V744H130Q130 738 132 731T139 716T153 705T177 700Q191 700 199 704T213 716T220 730T222 744H378V742V742ZM312
0H40V538H312V0Z" />
<glyph unicode="&#x12e;" glyph-name="Iogonek" horiz-adv-x="379" d="M331 0H48V744H331V0ZM25 -113Q25 -72 75 -47T218 0H332Q306 -17 289 -31T272 -61Q272 -82 305 -82H332V-188H172Q94 -188 60 -170T25 -116V-113Z" />
<glyph unicode="&#x12f;" glyph-name="iogonek" horiz-adv-x="352" d="M312 583H40V744H312V583ZM312 0H40V538H312V0ZM5 -113Q5 -72 55 -47T198 0H312Q286 -17 269 -31T252 -61Q252 -82 285 -82H312V-188H152Q74 -188 40 -170T5 -116V-113Z" />
<glyph unicode="&#x130;" glyph-name="Idotaccent" horiz-adv-x="379" d="M331 0H48V744H331V0ZM325 789H54V950H325V789Z" />
<glyph unicode="&#x131;" glyph-name="dotlessi" horiz-adv-x="352" d="M312 0H40V538H312V0Z" />
<glyph unicode="&#x132;" glyph-name="IJ" horiz-adv-x="1321" d="M331 0H48V744H331V0ZM794 -11Q706 -11 641 5T530 47T455 108T409 180T386 254T380 324V330H659Q660 319 665 298T686 255T735 218T823 202H831Q876 202 907 214T958 249T987 302T996 369V744H1280V363Q1280
324 1274 282T1252 198T1206 118T1129 52T1014 6T855 -11H794V-11Z" />
<glyph unicode="&#x133;" glyph-name="ij" horiz-adv-x="697" d="M312 583H40V744H312V583ZM312 0H40V538H312V0ZM657 583H385V744H657V583ZM353 -27Q371 -27 378 -20T385 10V538H657V-40Q657 -81 648 -109T624 -155T588 -180T545 -188H317V-27H353Z" />
<glyph unicode="&#x134;" glyph-name="Jcircumflex" horiz-adv-x="948" d="M421 -11Q333 -11 268 5T157 47T82 108T36 180T13 254T7 324V330H286Q287 319 292 298T313 255T362 218T450 202H458Q503 202 534 214T585 249T614 302T623 369V744H907V363Q907 324 901
282T879 198T833 118T756 52T641 6T482 -11H421V-11ZM1066 789H822L760 847L699 789H458L620 944H902L1066 789Z" />
<glyph unicode="&#x135;" glyph-name="jcircumflex" horiz-adv-x="352" d="M410 583H217L174 649L131 583H-59L50 744H300L410 583ZM8 -27Q26 -27 33 -20T40 10V538H312V-40Q312 -81 303 -109T279 -155T243 -180T200 -188H-28V-27H8Z" />
<glyph unicode="&#x136;" glyph-name="uni0136" horiz-adv-x="1046" d="M451 -296Q462 -275 472 -250T486 -204H373V-45H631V-170Q631 -185 626 -202T614 -237T597 -269T581 -296H451ZM48 0V744H332V450L698 744H1051L618 406L1065 0H695L332 333V0H48Z" />
<glyph unicode="&#x137;" glyph-name="uni0137" horiz-adv-x="807" d="M358 -296Q369 -275 379 -250T393 -204H280V-45H538V-170Q538 -185 533 -202T521 -237T504 -269T488 -296H358ZM40 0V744H312V328L496 538H789L570 300L821 0H512L312 242V0H40Z" />
<glyph unicode="&#x139;" glyph-name="Lacute" horiz-adv-x="875" d="M332 744V213H848V0H48V744H332ZM401 944H680L579 789H322L401 944Z" />
<glyph unicode="&#x13a;" glyph-name="lacute" horiz-adv-x="352" d="M139 941H408L302 789H56L139 941ZM312 0H40V744H312V0Z" />
<glyph unicode="&#x13b;" glyph-name="uni013B" horiz-adv-x="875" d="M399 -296Q410 -275 420 -250T434 -204H321V-45H579V-170Q579 -185 574 -202T562 -237T545 -269T529 -296H399ZM332 744V213H848V0H48V744H332Z" />
<glyph unicode="&#x13c;" glyph-name="uni013C" horiz-adv-x="352" d="M125 -296Q136 -275 146 -250T160 -204H47V-45H305V-170Q305 -185 300 -202T288 -237T271 -269T255 -296H125ZM312 0H40V744H312V0Z" />
<glyph unicode="&#x13d;" glyph-name="Lcaron" horiz-adv-x="875" d="M332 744V213H848V0H48V744H332ZM372 744H577L549 575H358L372 744Z" />
<glyph unicode="&#x13e;" glyph-name="lcaron" horiz-adv-x="352" d="M312 0H40V744H312V0ZM352 744H557L529 575H338L352 744Z" />
<glyph unicode="&#x13f;" glyph-name="Ldot" horiz-adv-x="871" d="M332 744V213H848V0H48V744H332ZM779 329H498V524H779V329Z" />
<glyph unicode="&#x140;" glyph-name="ldot" horiz-adv-x="632" d="M625 287H353V482H625V287ZM312 0H40V744H312V0Z" />
<glyph unicode="&#x141;" glyph-name="Lslash" horiz-adv-x="895" d="M352 744V454L655 562V406L352 301V213H868V0H68V203L-1 179V328L68 352V744H352Z" />
<glyph unicode="&#x142;" glyph-name="lslash" horiz-adv-x="384" d="M327 0H55V250L2 228V378L55 401V744H327V519L381 543V390L327 367V0Z" />
<glyph unicode="&#x143;" glyph-name="Nacute" horiz-adv-x="1128" d="M366 744L798 321V744H1080V0H796L330 451V0H48V744H366ZM516 944H795L694 789H437L516 944Z" />
<glyph unicode="&#x144;" glyph-name="nacute" horiz-adv-x="897" d="M40 538H310V443Q320 452 341 470T396 506T477 537T588 550H594Q669 550 720 530T801 480T845 414T858 346V0H585V257Q585 311 555 346T455 381Q386 381 349 344T312 250V0H40V538ZM416 744H684L573
583H327L416 744Z" />
<glyph unicode="&#x145;" glyph-name="uni0145" horiz-adv-x="1128" d="M511 -296Q522 -275 532 -250T546 -204H433V-45H691V-170Q691 -185 686 -202T674 -237T657 -269T641 -296H511ZM366 744L798 321V744H1080V0H796L330 451V0H48V744H366Z" />
<glyph unicode="&#x146;" glyph-name="uni0146" horiz-adv-x="897" d="M398 -296Q409 -275 419 -250T433 -204H320V-45H578V-170Q578 -185 573 -202T561 -237T544 -269T528 -296H398ZM40 538H310V443Q320 452 341 470T396 506T477 537T588 550H594Q669 550 720
530T801 480T845 414T858 346V0H585V257Q585 311 555 346T455 381Q386 381 349 344T312 250V0H40V538Z" />
<glyph unicode="&#x147;" glyph-name="Ncaron" horiz-adv-x="1128" d="M366 744L798 321V744H1080V0H796L330 451V0H48V744H366ZM259 944H503L565 886L626 944H867L706 789H424L259 944Z" />
<glyph unicode="&#x148;" glyph-name="ncaron" horiz-adv-x="897" d="M40 538H310V443Q320 452 341 470T396 506T477 537T588 550H594Q669 550 720 530T801 480T845 414T858 346V0H585V257Q585 311 555 346T455 381Q386 381 349 344T312 250V0H40V538ZM158 744H394L452
679L510 744H744L592 583H311L158 744Z" />
<glyph unicode="&#x149;" glyph-name="napostrophe" horiz-adv-x="1148" d="M291 538H561V443Q571 452 592 470T647 506T728 537T839 550H845Q920 550 971 530T1052 480T1096 414T1109 346V0H836V257Q836 311 806 346T706 381Q637 381 600 344T563 250V0H291V538ZM331
475Q344 498 356 527T371 579H260V744H527V610Q527 593 522 575T508 538T490 503T471 475H331Z" />
<glyph unicode="&#x14a;" glyph-name="Eng" horiz-adv-x="1128" d="M1080 23Q1080 -32 1067 -71T1031 -137T976 -175T909 -188H694V-17H773Q793 -17 793 -3Q793 4 787 11T763 35L330 451V0H48V744H366L798 321V744H1080V23V23Z" />
<glyph unicode="&#x14b;" glyph-name="eng" horiz-adv-x="897" d="M858 -42Q858 -83 849 -111T825 -156T789 -182T748 -190H492V-19H551Q570 -19 577 -11T585 20V257Q585 311 555 346T455 381Q386 381 349 344T312 250V0H40V538H310V443Q320 452 341 470T396 506T477
537T588 550H594Q669 550 720 530T801 480T845 414T858 346V-42Z" />
<glyph unicode="&#x14c;" glyph-name="Omacron" horiz-adv-x="1176" d="M611 758Q731 758 818 741T965 694T1062 626T1119 547T1146 465T1153 389V359Q1153 324 1147 283T1120 201T1063 121T966 52T818 4T611 -14H566Q446 -14 359 4T211 52T114 120T57 200T30
283T23 359V389Q23 424 29 465T56 547T114 626T211 693T358 740T566 758H611ZM859 382Q859 412 848 443T806 499T724 541T588 558Q504 558 451 542T369 500T328 443T317 382V370Q317 341 328 309T370 249T452 205T588 187Q670 187 723 204T806 247T847 306T859
368V382ZM353 931H822V799H353V931Z" />
<glyph unicode="&#x14d;" glyph-name="omacron" horiz-adv-x="927" d="M427 -15Q341 -15 277 -3T168 31T94 81T49 140T26 203T19 264V280Q19 308 25 339T47 401T93 459T167 507T276 540T426 553H502Q591 553 656 541T766 507T839 459T882 402T903 340T908 281V263Q908
234 903 203T883 140T841 81T768 32T657 -2T501 -15H427ZM464 401Q414 401 381 390T329 360T303 320T295 275V271Q295 249 302 226T329 183T380 151T464 138H465Q515 138 547 151T599 183T625 226T633 271V275Q633 297 626 319T599 360T548 389T465 401H464ZM237
724H689V595H237V724Z" />
<glyph unicode="&#x14e;" glyph-name="Obreve" horiz-adv-x="1176" d="M611 758Q731 758 818 741T965 694T1062 626T1119 547T1146 465T1153 389V359Q1153 324 1147 283T1120 201T1063 121T966 52T818 4T611 -14H566Q446 -14 359 4T211 52T114 120T57 200T30 283T23
359V389Q23 424 29 465T56 547T114 626T211 693T358 740T566 758H611ZM859 382Q859 412 848 443T806 499T724 541T588 558Q504 558 451 542T369 500T328 443T317 382V370Q317 341 328 309T370 249T452 205T588 187Q670 187 723 204T806 247T847 306T859 368V382ZM570
784Q497 784 453 803T384 849T352 905T344 954V956H527Q527 951 529 943T538 927T557 913T591 907Q611 907 623 913T642 927T651 943T653 956H833V954Q833 934 823 905T788 849T720 803T610 784H570V784Z" />
<glyph unicode="&#x14f;" glyph-name="obreve" horiz-adv-x="927" d="M445 579Q374 579 330 597T262 641T230 694T222 742V744H403Q403 739 405 732T414 717T433 704T466 698Q485 698 497 703T515 716T524 731T528 744H706V742Q706 722 696 695T661 641T593 597T485
579H445V579ZM427 -15Q341 -15 277 -3T168 31T94 81T49 140T26 203T19 264V280Q19 308 25 339T47 401T93 459T167 507T276 540T426 553H502Q591 553 656 541T766 507T839 459T882 402T903 340T908 281V263Q908 234 903 203T883 140T841 81T768 32T657 -2T501 -15H427ZM464
401Q414 401 381 390T329 360T303 320T295 275V271Q295 249 302 226T329 183T380 151T464 138H465Q515 138 547 151T599 183T625 226T633 271V275Q633 297 626 319T599 360T548 389T465 401H464Z" />
<glyph unicode="&#x150;" glyph-name="Ohungarumlaut" horiz-adv-x="1176" d="M676 944H921L856 792H617L676 944ZM387 944H632L574 792H335L387 944ZM611 758Q731 758 818 741T965 694T1062 626T1119 547T1146 465T1153 389V359Q1153 324 1147 283T1120 201T1063
121T966 52T818 4T611 -14H566Q446 -14 359 4T211 52T114 120T57 200T30 283T23 359V389Q23 424 29 465T56 547T114 626T211 693T358 740T566 758H611ZM859 382Q859 412 848 443T806 499T724 541T588 558Q504 558 451 542T369 500T328 443T317 382V370Q317 341
328 309T370 249T452 205T588 187Q670 187 723 204T806 247T847 306T859 368V382Z" />
<glyph unicode="&#x151;" glyph-name="ohungarumlaut" horiz-adv-x="927" d="M556 744H793L725 585H494L556 744ZM276 744H512L451 585H221L276 744ZM427 -15Q341 -15 277 -3T168 31T94 81T49 140T26 203T19 264V280Q19 308 25 339T47 401T93 459T167 507T276
540T426 553H502Q591 553 656 541T766 507T839 459T882 402T903 340T908 281V263Q908 234 903 203T883 140T841 81T768 32T657 -2T501 -15H427ZM464 401Q414 401 381 390T329 360T303 320T295 275V271Q295 249 302 226T329 183T380 151T464 138H465Q515 138 547
151T599 183T625 226T633 271V275Q633 297 626 319T599 360T548 389T465 401H464Z" />
<glyph unicode="&#x152;" glyph-name="OE" horiz-adv-x="1696" d="M583 557Q500 557 449 541T368 500T328 444T317 382V370Q317 340 328 308T369 250T450 206T583 188Q664 188 715 205T796 248T837 306T848 368V382Q848 412 837 443T797 500T716 541T583 557ZM885
70Q868 56 840 42T772 15T680 -5T561 -13H524Q415 -13 336 5T201 52T110 120T56 200T30 282T23 358V388Q23 423 29 464T55 546T109 625T199 692T334 738T524 756H561Q628 756 680 749T772 731T839 707T885 682V744H1654V562H1128V469H1644V288H1128V186H1662V0H885V70Z"
/>
<glyph unicode="&#x153;" glyph-name="oe" horiz-adv-x="1501" d="M1061 421Q1023 421 996 415T951 399T923 373T907 340H1215Q1207 378 1172 399T1061 421ZM295 271Q295 249 302 226T328 183T379 151T462 138H463Q513 138 545 151T596 183T622 226T630 271V275Q630
297 623 319T597 360T546 389T464 401H462Q412 401 380 390T329 360T303 320T295 275V271ZM773 66Q735 31 664 8T477 -15H421Q336 -15 273 -3T166 31T93 81T48 140T25 203T19 264V280Q19 308 25 339T47 401T92 459T164 507T272 540T420 553H478Q535 553 580 547T662
531T725 506T772 474Q811 508 878 530T1054 552H1093Q1180 552 1242 539T1348 505T1418 454T1459 393T1479 326T1484 260V230H904Q907 209 917 191T947 160T995 139T1065 131H1066Q1114 131 1143 139T1189 159T1210 180T1217 196H1483V194Q1483 176 1479 154T1460
108T1419 63T1350 24T1244 -3T1094 -14H1058Q950 -14 882 8T773 66Z" />
<glyph unicode="&#x154;" glyph-name="Racute" horiz-adv-x="1070" d="M332 435H658Q705 435 724 453T744 499V500Q744 526 725 544T658 563H332V435ZM332 0H48V744H724Q887 744 962 694T1037 553V542Q1037 501 1022 472T983 424T934 393T887 376Q956 360 998
316T1040 199V89Q1040 50 1044 33T1054 5V0H764Q759 6 757 14T755 39V126Q755 190 722 222T604 255H332V0ZM469 944H748L647 789H390L469 944Z" />
<glyph unicode="&#x155;" glyph-name="racute" horiz-adv-x="790" d="M310 439Q318 451 335 469T380 506T446 537T535 550H547Q614 550 657 529T726 474T762 398T773 312V258H509V277Q509 322 487 354T412 387Q364 387 338 355T312 271V0H40V538H310V439ZM356
744H624L513 583H267L356 744Z" />
<glyph unicode="&#x156;" glyph-name="uni0156" horiz-adv-x="1070" d="M492 -296Q503 -275 513 -250T527 -204H414V-45H672V-170Q672 -185 667 -202T655 -237T638 -269T622 -296H492ZM332 435H658Q705 435 724 453T744 499V500Q744 526 725 544T658 563H332V435ZM332
0H48V744H724Q887 744 962 694T1037 553V542Q1037 501 1022 472T983 424T934 393T887 376Q956 360 998 316T1040 199V89Q1040 50 1044 33T1054 5V0H764Q759 6 757 14T755 39V126Q755 190 722 222T604 255H332V0Z" />
<glyph unicode="&#x157;" glyph-name="uni0157" horiz-adv-x="790" d="M124 -296Q135 -275 145 -250T159 -204H46V-45H304V-170Q304 -185 299 -202T287 -237T270 -269T254 -296H124ZM310 439Q318 451 335 469T380 506T446 537T535 550H547Q614 550 657 529T726
474T762 398T773 312V258H509V277Q509 322 487 354T412 387Q364 387 338 355T312 271V0H40V538H310V439Z" />
<glyph unicode="&#x158;" glyph-name="Rcaron" horiz-adv-x="1070" d="M332 435H658Q705 435 724 453T744 499V500Q744 526 725 544T658 563H332V435ZM332 0H48V744H724Q887 744 962 694T1037 553V542Q1037 501 1022 472T983 424T934 393T887 376Q956 360 998
316T1040 199V89Q1040 50 1044 33T1054 5V0H764Q759 6 757 14T755 39V126Q755 190 722 222T604 255H332V0ZM212 944H456L518 886L579 944H820L659 789H377L212 944Z" />
<glyph unicode="&#x159;" glyph-name="rcaron" horiz-adv-x="790" d="M310 439Q318 451 335 469T380 506T446 537T535 550H547Q614 550 657 529T726 474T762 398T773 312V258H509V277Q509 322 487 354T412 387Q364 387 338 355T312 271V0H40V538H310V439ZM94 744H330L388
679L446 744H680L528 583H247L94 744Z" />
<glyph unicode="&#x15a;" glyph-name="Sacute" horiz-adv-x="1036" d="M462 944H741L640 792H383L462 944ZM468 -14Q365 -14 292 -1T168 33T87 81T41 138T19 197T14 250V260H326Q327 245 333 227T359 193T415 166T512 155H521Q581 155 616 161T671 176T697 198T703
225V226Q703 240 698 251T674 272T622 286T528 293L390 297Q282 300 212 319T100 369T42 438T25 521V530Q25 575 43 616T109 689T240 738T453 757H542Q680 757 768 737T906 684T975 609T994 522V514H685Q684 524 679 537T655 563T601 584T505 593H495Q439 593 407
589T357 577T336 559T331 538V537Q331 526 336 516T359 498T408 486T493 480L627 477Q733 474 807 460T929 419T998 350T1020 253V239Q1020 192 1003 147T936 66T796 8T559 -14H468V-14Z" />
<glyph unicode="&#x15b;" glyph-name="sacute" horiz-adv-x="814" d="M364 744H633L523 585H277L364 744ZM372 -15Q291 -15 233 -6T135 19T71 54T34 95T17 137T13 176V183H290Q290 175 293 164T307 143T341 125T401 117H403Q439 117 461 121T494 131T510 145T514
162V164Q514 174 511 181T496 195T465 204T411 208L297 211Q212 214 158 229T73 268T31 321T19 380V386Q19 419 32 449T84 502T191 539T372 553H425Q533 553 602 539T710 502T763 448T778 386V379H506Q505 386 502 394T488 410T456 423T398 429H397Q364 429 344
427T312 420T296 408T292 392V391Q292 383 296 376T311 364T341 356T392 351L505 348Q596 345 653 333T742 300T786 248T798 177V170Q798 133 785 100T731 41T618 0T427 -15H372V-15Z" />
<glyph unicode="&#x15c;" glyph-name="Scircumflex" horiz-adv-x="1036" d="M818 791H575L513 849L451 791H211L369 944H657L818 791ZM468 -14Q365 -14 292 -1T168 33T87 81T41 138T19 197T14 250V260H326Q327 245 333 227T359 193T415 166T512 155H521Q581 155
616 161T671 176T697 198T703 225V226Q703 240 698 251T674 272T622 286T528 293L390 297Q282 300 212 319T100 369T42 438T25 521V530Q25 575 43 616T109 689T240 738T453 757H542Q680 757 768 737T906 684T975 609T994 522V514H685Q684 524 679 537T655 563T601
584T505 593H495Q439 593 407 589T357 577T336 559T331 538V537Q331 526 336 516T359 498T408 486T493 480L627 477Q733 474 807 460T929 419T998 350T1020 253V239Q1020 192 1003 147T936 66T796 8T559 -14H468V-14Z" />
<glyph unicode="&#x15d;" glyph-name="scircumflex" horiz-adv-x="814" d="M694 585H458L400 648L342 585H109L261 744H541L694 585ZM372 -15Q291 -15 233 -6T135 19T71 54T34 95T17 137T13 176V183H290Q290 175 293 164T307 143T341 125T401 117H403Q439 117
461 121T494 131T510 145T514 162V164Q514 174 511 181T496 195T465 204T411 208L297 211Q212 214 158 229T73 268T31 321T19 380V386Q19 419 32 449T84 502T191 539T372 553H425Q533 553 602 539T710 502T763 448T778 386V379H506Q505 386 502 394T488 410T456
423T398 429H397Q364 429 344 427T312 420T296 408T292 392V391Q292 383 296 376T311 364T341 356T392 351L505 348Q596 345 653 333T742 300T786 248T798 177V170Q798 133 785 100T731 41T618 0T427 -15H372V-15Z" />
<glyph unicode="&#x15e;" glyph-name="uni015E" horiz-adv-x="1036" d="M468 -14Q365 -14 292 -1T168 33T87 81T41 138T19 197T14 250V260H326Q327 245 333 227T359 193T415 166T512 155H521Q581 155 616 161T671 176T697 198T703 225V226Q703 240 698 251T674
272T622 286T528 293L390 297Q282 300 212 319T100 369T42 438T25 521V530Q25 575 43 616T109 689T240 738T453 757H542Q680 757 768 737T906 684T975 609T994 522V514H685Q684 524 679 537T655 563T601 584T505 593H495Q439 593 407 589T357 577T336 559T331 538V537Q331
526 336 516T359 498T408 486T493 480L627 477Q733 474 807 460T929 419T998 350T1020 253V239Q1020 192 1003 147T936 66T796 8T559 -14H468V-14ZM351 -167H460Q481 -167 488 -161T496 -145Q496 -136 489 -130T460 -123H389V0H527V-49Q587 -49 624 -56T683 -76T711
-109T719 -151V-154Q719 -175 711 -194T682 -228T624 -250T526 -259H351V-167Z" />
<glyph unicode="&#x15f;" glyph-name="uni015F" horiz-adv-x="814" d="M372 -15Q291 -15 233 -6T135 19T71 54T34 95T17 137T13 176V183H290Q290 175 293 164T307 143T341 125T401 117H403Q439 117 461 121T494 131T510 145T514 162V164Q514 174 511 181T496 195T465
204T411 208L297 211Q212 214 158 229T73 268T31 321T19 380V386Q19 419 32 449T84 502T191 539T372 553H425Q533 553 602 539T710 502T763 448T778 386V379H506Q505 386 502 394T488 410T456 423T398 429H397Q364 429 344 427T312 420T296 408T292 392V391Q292
383 296 376T311 364T341 356T392 351L505 348Q596 345 653 333T742 300T786 248T798 177V170Q798 133 785 100T731 41T618 0T427 -15H372V-15ZM221 -167H330Q351 -167 358 -161T366 -145Q366 -136 359 -130T330 -123H259V0H397V-49Q457 -49 494 -56T553 -76T581
-109T589 -151V-154Q589 -175 581 -194T552 -228T494 -250T396 -259H221V-167Z" />
<glyph unicode="&#x160;" glyph-name="Scaron" horiz-adv-x="1036" d="M468 -14Q365 -14 292 -1T168 33T87 81T41 138T19 197T14 250V260H326Q327 245 333 227T359 193T415 166T512 155H521Q581 155 616 161T671 176T697 198T703 225V226Q703 240 698 251T674
272T622 286T528 293L390 297Q282 300 212 319T100 369T42 438T25 521V530Q25 575 43 616T109 689T240 738T453 757H542Q680 757 768 737T906 684T975 609T994 522V514H685Q684 524 679 537T655 563T601 584T505 593H495Q439 593 407 589T357 577T336 559T331 538V537Q331
526 336 516T359 498T408 486T493 480L627 477Q733 474 807 460T929 419T998 350T1020 253V239Q1020 192 1003 147T936 66T796 8T559 -14H468V-14ZM203 944H447L509 886L570 944H811L650 789H368L203 944Z" />
<glyph unicode="&#x161;" glyph-name="scaron" horiz-adv-x="814" d="M372 -15Q291 -15 233 -6T135 19T71 54T34 95T17 137T13 176V183H290Q290 175 293 164T307 143T341 125T401 117H403Q439 117 461 121T494 131T510 145T514 162V164Q514 174 511 181T496 195T465
204T411 208L297 211Q212 214 158 229T73 268T31 321T19 380V386Q19 419 32 449T84 502T191 539T372 553H425Q533 553 602 539T710 502T763 448T778 386V379H506Q505 386 502 394T488 410T456 423T398 429H397Q364 429 344 427T312 420T296 408T292 392V391Q292
383 296 376T311 364T341 356T392 351L505 348Q596 345 653 333T742 300T786 248T798 177V170Q798 133 785 100T731 41T618 0T427 -15H372V-15ZM107 744H343L401 679L459 744H693L541 583H260L107 744Z" />
<glyph unicode="&#x162;" glyph-name="Tcommaaccent" horiz-adv-x="977" d="M437 -296Q448 -275 458 -250T472 -204H359V-45H617V-170Q617 -185 612 -202T600 -237T583 -269T567 -296H437ZM346 541H25V744H951V541H630V0H346V541Z" />
<glyph unicode="&#x163;" glyph-name="tcommaaccent" horiz-adv-x="514" d="M530 -296Q541 -275 551 -250T565 -204H452V-45H710V-170Q710 -185 705 -202T693 -237T676 -269T660 -296H530ZM259 0Q189 0 153 38T116 153V373H13V538H116V695H386V538H489V373H386V214Q386
189 394 178T431 167H489V0H259Z" />
<glyph unicode="&#x164;" glyph-name="Tcaron" horiz-adv-x="977" d="M346 541H25V744H951V541H630V0H346V541ZM184 944H428L490 886L551 944H792L631 789H349L184 944Z" />
<glyph unicode="&#x165;" glyph-name="tcaron" horiz-adv-x="514" d="M259 0Q189 0 153 38T116 153V373H13V538H116V695H386V538H489V373H386V214Q386 189 394 178T431 167H489V0H259ZM427 744H632L604 575H413L427 744Z" />
<glyph unicode="&#x166;" glyph-name="Tbar" horiz-adv-x="977" d="M112 284V426H865V284H112ZM346 541H25V744H951V541H630V0H346V541Z" />
<glyph unicode="&#x167;" glyph-name="tbar" horiz-adv-x="514" d="M489 0H259Q189 0 153 38T116 153V223H13V340H116V386H13V538H116V695H386V538H489V386H386V340H489V223H386V209Q386 184 394 173T431 161H489V0Z" />
<glyph unicode="&#x168;" glyph-name="Utilde" horiz-adv-x="1104" d="M40 744H325V411Q325 377 334 342T368 277T438 230T553 211Q622 211 666 229T736 277T770 341T780 411V744H1064V389Q1064 353 1057 310T1031 221T977 135T889 60T757 8T574 -12H534Q426 -12
347 7T214 60T125 134T72 221T47 309T40 389V744ZM679 793Q662 793 648 794T619 799T586 808T544 822Q521 830 508 833T484 837Q473 837 470 831T466 816V787H305V872Q305 887 309 904T326 936T360 960T418 970H422Q439 970 453 969T483 963T517 954T559 941Q579
934 593 930T618 926Q626 926 630 932T635 946V975H796V896Q796 880 793 862T777 829T743 803T684 793H679V793Z" />
<glyph unicode="&#x169;" glyph-name="utilde" horiz-adv-x="887" d="M847 0H577V96Q567 86 547 68T493 32T413 1T304 -12H297Q222 -12 173 8T93 60T51 128T39 198V538H312V281Q312 255 318 233T340 193T378 167T436 157Q504 157 540 195T576 288V538H847V0ZM567
585Q552 585 539 586T510 591T477 600T435 614Q413 621 401 624T379 628Q369 628 366 622T363 607V580H204V661Q204 676 208 693T224 725T257 748T314 758H318Q334 758 348 757T376 752T408 744T451 730Q471 723 483 719T506 715Q514 715 517 721T521 735V764H681V688Q681
672 678 654T663 621T629 595T571 585H567V585Z" />
<glyph unicode="&#x16a;" glyph-name="Umacron" horiz-adv-x="1104" d="M40 744H325V411Q325 377 334 342T368 277T438 230T553 211Q622 211 666 229T736 277T770 341T780 411V744H1064V389Q1064 353 1057 310T1031 221T977 135T889 60T757 8T574 -12H534Q426
-12 347 7T214 60T125 134T72 221T47 309T40 389V744ZM317 929H786V797H317V929Z" />
<glyph unicode="&#x16b;" glyph-name="umacron" horiz-adv-x="887" d="M847 0H577V96Q567 86 547 68T493 32T413 1T304 -12H297Q222 -12 173 8T93 60T51 128T39 198V538H312V281Q312 255 318 233T340 193T378 167T436 157Q504 157 540 195T576 288V538H847V0ZM217
722H669V593H217V722Z" />
<glyph unicode="&#x16c;" glyph-name="Ubreve" horiz-adv-x="1104" d="M40 744H325V411Q325 377 334 342T368 277T438 230T553 211Q622 211 666 229T736 277T770 341T780 411V744H1064V389Q1064 353 1057 310T1031 221T977 135T889 60T757 8T574 -12H534Q426 -12
347 7T214 60T125 134T72 221T47 309T40 389V744ZM533 782Q460 782 416 801T347 847T315 903T307 952V954H490Q490 949 492 941T501 925T520 911T554 905Q574 905 586 911T605 925T614 941T616 954H796V952Q796 932 786 903T751 847T683 801T573 782H533V782Z"
/>
<glyph unicode="&#x16d;" glyph-name="ubreve" horiz-adv-x="887" d="M847 0H577V96Q567 86 547 68T493 32T413 1T304 -12H297Q222 -12 173 8T93 60T51 128T39 198V538H312V281Q312 255 318 233T340 193T378 167T436 157Q504 157 540 195T576 288V538H847V0ZM685
742Q685 722 675 694T640 639T572 595T464 577H424Q352 577 309 595T241 639T209 693T201 742V744H382Q382 739 384 731T393 715T412 702T445 696Q465 696 477 701T495 715T504 731T507 744H685V742V742Z" />
<glyph unicode="&#x16e;" glyph-name="Uring" horiz-adv-x="1104" d="M40 744H325V411Q325 377 334 342T368 277T438 230T553 211Q622 211 666 229T736 277T770 341T780 411V744H1064V389Q1064 353 1057 310T1031 221T977 135T889 60T757 8T574 -12H534Q426 -12
347 7T214 60T125 134T72 221T47 309T40 389V744ZM353 889Q353 913 362 935T395 973T456 998T553 1008Q611 1008 649 999T709 973T741 935T750 889Q750 864 741 843T710 805T649 780T553 770Q494 770 456 779T394 805T362 843T353 889ZM476 890Q476 869 494 857T553
844Q593 844 610 856T628 890Q628 910 611 922T553 934Q512 934 494 922T476 890Z" />
<glyph unicode="&#x16f;" glyph-name="uring" horiz-adv-x="887" d="M847 0H577V96Q567 86 547 68T493 32T413 1T304 -12H297Q222 -12 173 8T93 60T51 128T39 198V538H312V281Q312 255 318 233T340 193T378 167T436 157Q504 157 540 195T576 288V538H847V0ZM246
695Q246 719 255 740T288 778T349 803T444 813Q501 813 538 804T598 778T630 741T639 695Q639 670 630 649T599 611T539 586T444 576Q386 576 348 585T287 611T255 649T246 695ZM369 695Q369 675 387 663T444 650Q482 650 499 662T517 695Q517 715 500 727T444
739Q405 739 387 727T369 695Z" />
<glyph unicode="&#x170;" glyph-name="Uhungarumlaut" horiz-adv-x="1104" d="M40 744H325V411Q325 377 334 342T368 277T438 230T553 211Q622 211 666 229T736 277T770 341T780 411V744H1064V389Q1064 353 1057 310T1031 221T977 135T889 60T757 8T574 -12H534Q426
-12 347 7T214 60T125 134T72 221T47 309T40 389V744ZM633 944H878L813 789H574L633 944ZM345 944H590L531 789H292L345 944Z" />
<glyph unicode="&#x171;" glyph-name="uhungarumlaut" horiz-adv-x="887" d="M847 0H577V96Q567 86 547 68T493 32T413 1T304 -12H297Q222 -12 173 8T93 60T51 128T39 198V538H312V281Q312 255 318 233T340 193T378 167T436 157Q504 157 540 195T576 288V538H847V0ZM527
744H764L695 583H464L527 744ZM247 744H483L421 583H191L247 744Z" />
<glyph unicode="&#x172;" glyph-name="Uogonek" horiz-adv-x="1104" d="M642 -188Q564 -188 530 -170T495 -116V-113Q495 -73 543 -50T680 -5Q654 -9 628 -10T574 -12H534Q426 -12 347 7T214 60T125 134T72 221T47 309T40 389V744H325V411Q325 377 334 342T368
277T438 230T553 211Q622 211 666 229T736 277T770 341T780 411V744H1064V389Q1064 274 1008 178T822 8Q785 -12 763 -27T741 -61Q741 -82 775 -82H807V-188H642Z" />
<glyph unicode="&#x173;" glyph-name="uogonek" horiz-adv-x="887" d="M540 -113Q540 -72 590 -47T733 0H847Q821 -17 804 -31T787 -61Q787 -82 820 -82H847V-188H687Q609 -188 575 -170T540 -116V-113ZM847 0H577V96Q567 86 547 68T493 32T413 1T304 -12H297Q222
-12 173 8T93 60T51 128T39 198V538H312V281Q312 255 318 233T340 193T378 167T436 157Q504 157 540 195T576 288V538H847V0Z" />
<glyph unicode="&#x174;" glyph-name="Wcircumflex" horiz-adv-x="1535" d="M278 0L-12 744H304L473 253L622 744H942L1093 261L1257 744H1548L1258 0H929L774 470L624 0H278ZM1081 789H837L775 847L714 789H473L635 944H917L1081 789Z" />
<glyph unicode="&#x175;" glyph-name="wcircumflex" horiz-adv-x="1219" d="M202 0L-10 538H273L378 199L481 538H761L866 200L969 538H1229L1029 0H725L617 326L509 0H202ZM914 582H677L619 648L561 582H328L480 744H761L914 582Z" />
<glyph unicode="&#x176;" glyph-name="Ycircumflex" horiz-adv-x="1049" d="M387 280L-20 744H320L537 487L758 744H1069L671 278V0H387V280ZM839 789H595L533 847L472 789H231L393 944H675L839 789Z" />
<glyph unicode="&#x177;" glyph-name="ycircumflex" horiz-adv-x="827" d="M119 -22H241Q256 -22 261 -17T266 -5V-4Q266 4 260 16T243 50L-11 538H279L429 192L568 538H838L579 -23Q540 -108 493 -148T372 -188H119V-22ZM718 582H481L423 648L365 582H132L284
744H565L718 582Z" />
<glyph unicode="&#x178;" glyph-name="Ydieresis" horiz-adv-x="1049" d="M387 280L-20 744H320L537 487L758 744H1069L671 278V0H387V280ZM804 789H559V944H804V789ZM511 789H265V944H511V789Z" />
<glyph unicode="&#x179;" glyph-name="Zacute" horiz-adv-x="954" d="M920 744V593L432 203H925V0H29V152L503 548H35V744H920ZM409 944H688L587 789H330L409 944Z" />
<glyph unicode="&#x17a;" glyph-name="zacute" horiz-adv-x="752" d="M22 0V146L380 379H22V538H729V395L360 165H730V0H22ZM333 744H601L490 583H244L333 744Z" />
<glyph unicode="&#x17b;" glyph-name="Zdotaccent" horiz-adv-x="954" d="M920 744V593L432 203H925V0H29V152L503 548H35V744H920ZM612 789H341V950H612V789Z" />
<glyph unicode="&#x17c;" glyph-name="zdotaccent" horiz-adv-x="752" d="M22 0V146L380 379H22V538H729V395L360 165H730V0H22ZM511 583H240V744H511V583Z" />
<glyph unicode="&#x17d;" glyph-name="Zcaron" horiz-adv-x="954" d="M920 744V593L432 203H925V0H29V152L503 548H35V744H920ZM172 944H416L478 886L539 944H780L619 789H337L172 944Z" />
<glyph unicode="&#x17e;" glyph-name="zcaron" horiz-adv-x="752" d="M22 0V146L380 379H22V538H729V395L360 165H730V0H22ZM85 744H321L379 679L437 744H671L519 583H238L85 744Z" />
<glyph unicode="&#x192;" glyph-name="uni0192" horiz-adv-x="544" d="M390 320L364 -190H94L119 320H21V486H127L132 591Q134 622 143 650T176 699T237 732T336 744H514V590H439Q416 590 410 581T401 551L398 486H514V320H390Z" />
<glyph unicode="&#x1fa;" glyph-name="Aringacute" horiz-adv-x="1107" d="M538 562L416 306H663L538 562ZM754 120H329L272 0H-16L352 744H734L1123 0H812L754 120ZM516 1201H784L673 1040H427L516 1201ZM346 898Q346 922 355 944T388 982T449 1007T546 1017Q604
1017 642 1008T702 982T734 944T743 898Q743 873 734 852T703 814T642 789T546 779Q487 779 449 788T387 814T355 852T346 898ZM469 899Q469 878 487 866T546 853Q586 853 603 865T621 899Q621 919 604 931T546 943Q505 943 487 931T469 899Z" />
<glyph unicode="&#x1fb;" glyph-name="aringacute" horiz-adv-x="846" d="M521 254L341 222Q306 216 291 206T275 176V175Q275 166 279 156T292 138T318 125T360 120Q397 120 427 129T478 154T510 190T521 231V254ZM526 72Q516 62 498 48T449 21T376 -1T274 -10H263Q195
-10 148 4T71 43T28 99T14 163V175Q14 209 25 235T63 281T130 313T232 331L491 354Q508 356 514 362T521 380Q521 387 518 394T502 408T467 417T404 421H400Q357 421 333 415T298 400T283 382T279 366H27V372Q27 399 35 430T78 489T182 534T372 552H428Q512 552
571 545T670 524T733 493T768 457T783 417T787 379V180Q787 169 791 163T810 157H839V0H613Q578 0 555 18T526 72ZM373 1000H641L530 839H284L373 1000ZM205 696Q205 720 214 741T247 779T308 804T403 814Q460 814 497 805T557 779T589 742T598 696Q598 671 589
650T558 612T498 587T403 577Q345 577 307 586T246 612T214 650T205 696ZM328 696Q328 676 346 664T403 651Q441 651 458 663T476 696Q476 716 459 728T403 740Q364 740 346 728T328 696Z" />
<glyph unicode="&#x1fc;" glyph-name="AEacute" horiz-adv-x="1516" d="M941 944H1220L1119 789H862L941 944ZM668 568L477 302H668V568ZM668 116H343L260 0H-26L514 744H1474V562H948V469H1464V288H948V186H1482V0H668V116Z" />
<glyph unicode="&#x1fd;" glyph-name="aeacute" horiz-adv-x="1381" d="M642 744H910L799 583H553L642 744ZM939 421Q862 421 828 399T785 340H1095Q1087 378 1052 399T941 421H939ZM359 119Q396 119 425 128T474 153T506 189T517 231V254L339 223Q306 217 290
207T274 177V176Q274 166 278 156T292 138T318 124T359 119ZM1362 194Q1362 175 1357 153T1338 107T1297 62T1226 23T1119 -4T969 -14H914Q843 -14 789 -5T693 19T623 54T572 99Q561 87 540 68T486 32T404 3T290 -10H279Q204 -10 154 4T72 43T28 99T14 163V175Q14
243 63 282T231 332L494 355Q508 357 512 363T517 381V382Q517 389 514 395T498 407T463 416T401 420H396Q354 420 331 414T296 400T282 382T279 366H28V372Q28 389 30 409T44 449T76 487T136 520T230 543T369 552H424Q479 552 520 548T591 536T641 520T674 502Q688
511 708 519T758 535T825 547T911 552H968Q1056 552 1120 539T1228 505T1298 454T1339 393T1359 326T1364 260V230H782Q785 209 795 191T825 160T873 139T944 131H945Q994 131 1024 139T1069 159T1090 181T1096 196H1362V194Z" />
<glyph unicode="&#x1fe;" glyph-name="Oslashacute" horiz-adv-x="1181" d="M541 944H820L719 792H462L541 944ZM568 -13Q474 -13 400 -1T268 34L224 0H-6Q14 16 38 34Q58 49 83 68T134 108Q72 161 47 225T22 358V388Q22 423 29 464T56 547T113 626T211 693T359
739T568 757H614Q707 757 779 745T908 711L951 744H1182L1044 637Q1105 586 1132 523T1159 388V358Q1159 323 1152 282T1125 200T1067 121T970 53T822 5T614 -13H568ZM313 370Q313 344 320 319T344 270L708 555Q660 561 590 561Q505 561 451 545T367 504T325 447T313
383V370ZM590 185Q674 185 727 201T812 244T856 304T868 369V383Q868 408 862 433T839 480L470 192Q495 189 525 187T590 185Z" />
<glyph unicode="&#x1ff;" glyph-name="oslashacute" horiz-adv-x="927" d="M426 744H694L585 585H339L426 744ZM425 -15Q356 -15 299 -4T200 24L163 0H-14L104 82Q62 114 41 160T19 264V280Q19 308 25 339T48 401T94 459T168 507T277 540T428 553H503Q578 553
634 541T726 515L760 538H940L825 459Q908 390 908 281V263Q908 234 903 203T883 140T839 81T766 32T655 -2T499 -15H425ZM289 271Q289 242 299 216L553 392Q536 397 514 400T465 404H463Q411 404 377 393T324 362T297 320T289 275V271ZM465 136Q517 136 551 149T604
182T631 225T639 271V275Q639 287 638 299T631 324L378 148Q412 136 464 136H465Z" />
<glyph unicode="&#x218;" glyph-name="uni0218" horiz-adv-x="1036" d="M463 -299Q474 -278 484 -253T498 -207H385V-48H643V-173Q643 -188 638 -205T626 -240T609 -272T593 -299H463ZM468 -14Q365 -14 292 -1T168 33T87 81T41 138T19 197T14 250V260H326Q327
245 333 227T359 193T415 166T512 155H521Q581 155 616 161T671 176T697 198T703 225V226Q703 240 698 251T674 272T622 286T528 293L390 297Q282 300 212 319T100 369T42 438T25 521V530Q25 575 43 616T109 689T240 738T453 757H542Q680 757 768 737T906 684T975
609T994 522V514H685Q684 524 679 537T655 563T601 584T505 593H495Q439 593 407 589T357 577T336 559T331 538V537Q331 526 336 516T359 498T408 486T493 480L627 477Q733 474 807 460T929 419T998 350T1020 253V239Q1020 192 1003 147T936 66T796 8T559 -14H468V-14Z"
/>
<glyph unicode="&#x219;" glyph-name="uni0219" horiz-adv-x="814" d="M354 -42Q365 -21 375 4T389 50H276V209H534V84Q534 69 529 52T517 17T500 -15T484 -42H354ZM372 -15Q291 -15 233 -6T135 19T71 54T34 95T17 137T13 176V183H290Q290 175 293 164T307 143T341
125T401 117H403Q439 117 461 121T494 131T510 145T514 162V164Q514 174 511 181T496 195T465 204T411 208L297 211Q212 214 158 229T73 268T31 321T19 380V386Q19 419 32 449T84 502T191 539T372 553H425Q533 553 602 539T710 502T763 448T778 386V379H506Q505
386 502 394T488 410T456 423T398 429H397Q364 429 344 427T312 420T296 408T292 392V391Q292 383 296 376T311 364T341 356T392 351L505 348Q596 345 653 333T742 300T786 248T798 177V170Q798 133 785 100T731 41T618 0T427 -15H372V-15Z" />
<glyph unicode="&#x21a;" glyph-name="uni021A" horiz-adv-x="977" d="M437 -296Q448 -275 458 -250T472 -204H359V-45H617V-170Q617 -185 612 -202T600 -237T583 -269T567 -296H437ZM346 541H25V744H951V541H630V0H346V541Z" />
<glyph unicode="&#x21b;" glyph-name="uni021B" horiz-adv-x="514" d="M530 -296Q541 -275 551 -250T565 -204H452V-45H710V-170Q710 -185 705 -202T693 -237T676 -269T660 -296H530ZM259 0Q189 0 153 38T116 153V373H13V538H116V695H386V538H489V373H386V214Q386
189 394 178T431 167H489V0H259Z" />
<glyph unicode="&#x237;" glyph-name="uni0237" horiz-adv-x="352" d="M8 -27Q26 -27 33 -20T40 10V538H312V-40Q312 -81 303 -109T279 -155T243 -180T200 -188H-28V-27H8Z" />
<glyph unicode="&#x2c6;" glyph-name="circumflex" horiz-adv-x="706" d="M646 582H409L351 648L293 582H60L212 744H493L646 582Z" />
<glyph unicode="&#x2c7;" glyph-name="caron" horiz-adv-x="706" d="M60 744H296L354 679L412 744H646L494 583H213L60 744Z" />
<glyph unicode="&#x2d8;" glyph-name="breve" horiz-adv-x="706" d="M595 742Q595 722 585 694T550 639T482 595T374 577H334Q262 577 219 595T151 639T119 693T111 742V744H292Q292 739 294 731T303 715T322 702T355 696Q375 696 387 701T405 715T414 731T417
744H595V742V742Z" />
<glyph unicode="&#x2d9;" glyph-name="dotaccent" horiz-adv-x="706" d="M488 583H217V744H488V583Z" />
<glyph unicode="&#x2da;" glyph-name="ring" horiz-adv-x="706" d="M157 695Q157 719 166 740T199 778T260 803T355 813Q412 813 449 804T509 778T541 741T550 695Q550 670 541 649T510 611T450 586T355 576Q297 576 259 585T198 611T166 649T157 695ZM280 695Q280
675 298 663T355 650Q393 650 410 662T428 695Q428 715 411 727T355 739Q316 739 298 727T280 695Z" />
<glyph unicode="&#x2db;" glyph-name="ogonek" horiz-adv-x="706" d="M196 -113Q196 -72 246 -47T389 0H503Q477 -17 460 -31T443 -61Q443 -82 476 -82H503V-188H343Q265 -188 231 -170T196 -116V-113Z" />
<glyph unicode="&#x2dc;" glyph-name="tilde" horiz-adv-x="706" d="M477 585Q462 585 449 586T420 591T387 600T345 614Q323 621 311 624T289 628Q279 628 276 622T273 607V580H114V661Q114 676 118 693T134 725T167 748T224 758H228Q244 758 258 757T286 752T318
744T361 730Q381 723 393 719T416 715Q424 715 427 721T431 735V764H591V688Q591 672 588 654T573 621T539 595T481 585H477V585Z" />
<glyph unicode="&#x2dd;" glyph-name="hungarumlaut" horiz-adv-x="706" d="M403 744H640L571 583H340L403 744ZM123 744H359L297 583H67L123 744Z" />
</font>
</defs>
</svg>
